<?xml version="1.0" encoding="UTF-8"?>
<!DOCTYPE svg PUBLIC "-//W3C//DTD SVG 1.1//EN" "http://www.w3.org/Graphics/SVG/1.1/DTD/svg11.dtd">
<svg xmlns="http://www.w3.org/2000/svg" version="1.1" width="512px" height="512px" style="shape-rendering:geometricPrecision; text-rendering:geometricPrecision; image-rendering:optimizeQuality; fill-rule:evenodd; clip-rule:evenodd" xmlns:xlink="http://www.w3.org/1999/xlink">
<g><path style="opacity:0.994" fill="#323232" d="M 247.5,151.5 C 247.513,155.65 245.513,158.15 241.5,159C 233.841,159.5 226.174,159.666 218.5,159.5C 213.821,159.334 209.155,159.501 204.5,160C 198.654,163.901 197.987,168.568 202.5,174C 216.278,174.457 225.778,180.957 231,193.5C 231.333,239.5 231.667,285.5 232,331.5C 237.083,342.625 245.25,345.792 256.5,341C 258.79,339.223 260.457,337.056 261.5,334.5C 262.268,333.737 262.768,332.737 263,331.5C 263.333,306.833 263.667,282.167 264,257.5C 273.894,237.467 287.728,234.134 305.5,247.5C 307.94,250.455 309.773,253.789 311,257.5C 311.333,268.833 311.667,280.167 312,291.5C 316.415,301.624 323.915,305.124 334.5,302C 340.433,298.964 343.433,294.131 343.5,287.5C 343.333,269.497 343.5,251.497 344,233.5C 351.936,216.109 364.436,211.609 381.5,220C 384.067,222.396 386.4,224.896 388.5,227.5C 389.045,229.593 389.878,231.593 391,233.5C 391.167,281.17 391.667,328.837 392.5,376.5C 395.024,375.408 397.357,374.074 399.5,372.5C 402.057,370.968 404.557,369.301 407,367.5C 407.333,342.5 407.667,317.5 408,292.5C 409.41,289.211 411.91,287.544 415.5,287.5C 419.063,287.625 421.563,289.292 423,292.5C 423.333,312.833 423.667,333.167 424,353.5C 429.367,348.468 434.367,343.135 439,337.5C 441.965,306.608 444.131,275.608 445.5,244.5C 446.491,237.687 446.825,230.687 446.5,223.5C 438.833,223.5 431.167,223.5 423.5,223.5C 423.5,228.833 423.5,234.167 423.5,239.5C 423.666,248.173 423.5,256.84 423,265.5C 422.15,269.513 419.65,271.513 415.5,271.5C 411.363,271.518 408.863,269.518 408,265.5C 407.667,236.167 407.333,206.833 407,177.5C 403.631,168.129 397.131,162.296 387.5,160C 347.833,159.667 308.167,159.333 268.5,159C 265.292,157.563 263.625,155.063 263.5,151.5C 263.146,148.039 264.479,145.539 267.5,144C 310.546,143.022 353.546,143.355 396.5,145C 410.771,150.27 419.771,160.27 423.5,175C 441.833,175.333 460.167,175.667 478.5,176C 492.482,181.457 497.982,191.624 495,206.5C 489.252,220.628 478.752,226.295 463.5,223.5C 463.605,227.548 463.272,231.548 462.5,235.5C 469.508,235.334 476.508,235.5 483.5,236C 484.416,236.374 485.25,236.874 486,237.5C 488.946,275.336 479.279,309.67 457,340.5C 453.805,389.82 450.805,439.154 448,488.5C 447.594,491.494 446.094,493.661 443.5,495C 376.833,495.667 310.167,495.667 243.5,495C 240.479,493.461 239.146,490.961 239.5,487.5C 239.544,483.91 241.211,481.41 244.5,480C 307.166,479.5 369.832,479.333 432.5,479.5C 432.623,468.825 432.957,458.159 433.5,447.5C 435.529,419.182 437.029,390.849 438,362.5C 433.52,366.737 428.853,370.737 424,374.5C 423.667,387.167 423.333,399.833 423,412.5C 419.19,425.145 410.69,431.478 397.5,431.5C 381.574,428.031 374.074,418.031 375,401.5C 372.433,402.587 369.933,403.587 367.5,404.5C 334.055,414.141 300.721,413.808 267.5,403.5C 241.798,394.728 219.298,380.728 200,361.5C 199.333,371.5 199.333,381.5 200,391.5C 208.152,423.442 215.986,455.442 223.5,487.5C 223.854,490.961 222.521,493.461 219.5,495C 184.833,495.667 150.167,495.667 115.5,495C 112.479,493.461 111.146,490.961 111.5,487.5C 111.5,475.167 111.5,462.833 111.5,450.5C 110.823,442.342 114.49,438.842 122.5,440C 124.667,440.833 126.167,442.333 127,444.5C 127.499,449.155 127.666,453.821 127.5,458.5C 127.5,465.5 127.5,472.5 127.5,479.5C 135.5,479.5 143.5,479.5 151.5,479.5C 151.5,474.167 151.5,468.833 151.5,463.5C 153.076,456.045 157.41,453.878 164.5,457C 166.451,458.734 167.451,460.901 167.5,463.5C 167.5,468.833 167.5,474.167 167.5,479.5C 180.184,479.832 192.851,479.499 205.5,478.5C 204.008,473.531 202.675,468.531 201.5,463.5C 196.788,443.983 191.788,424.649 186.5,405.5C 185.815,400.761 184.815,396.095 183.5,391.5C 183.5,386.167 183.5,380.833 183.5,375.5C 183.5,372.833 183.5,370.167 183.5,367.5C 147.832,367.667 112.165,367.5 76.5,367C 75.0161,366.338 73.6828,365.504 72.5,364.5C 72.3713,362.784 72.038,361.117 71.5,359.5C 71.5441,355.91 73.2108,353.41 76.5,352C 111.832,351.5 147.165,351.333 182.5,351.5C 181.69,344.883 179.023,339.216 174.5,334.5C 165.783,323.861 154.45,318.694 140.5,319C 136.359,316.215 134.859,312.382 136,307.5C 144.941,271.463 152.608,235.13 159,198.5C 160.481,170.484 147.314,154.817 119.5,151.5C 98.7563,152.738 85.5897,163.405 80,183.5C 79.3333,188.833 79.3333,194.167 80,199.5C 86.5234,235.786 94.1901,271.786 103,307.5C 104.24,312.853 102.406,316.686 97.5,319C 72.1576,320.844 58.1576,334.344 55.5,359.5C 55.5,367.5 55.5,375.5 55.5,383.5C 90.8349,383.333 126.168,383.5 161.5,384C 165.518,384.863 167.518,387.363 167.5,391.5C 167.513,395.65 165.513,398.15 161.5,399C 125.495,399.167 89.4954,399.667 53.5,400.5C 46.8333,426.5 40.1667,452.5 33.5,478.5C 36.7844,479.657 40.1177,479.824 43.5,479C 48.1243,472.252 52.6243,465.419 57,458.5C 60.9553,454.68 65.122,454.513 69.5,458C 74.1243,464.748 78.6243,471.581 83,478.5C 86.1468,479.278 89.3135,480.111 92.5,481C 94.4506,482.734 95.4506,484.901 95.5,487.5C 95.8541,490.961 94.5208,493.461 91.5,495C 86.1667,495.667 80.8333,495.667 75.5,495C 74.5838,494.626 73.7504,494.126 73,493.5C 70.0808,488.66 66.9141,483.994 63.5,479.5C 60.0433,484.246 56.7099,489.08 53.5,494C 47.6047,495.124 41.6047,495.624 35.5,495.5C 30.1667,495.333 24.8333,495.167 19.5,495C 16.3336,493.334 15.0003,490.668 15.5,487C 22.9375,454.75 30.7708,422.583 39,390.5C 39.3333,376.5 39.6667,362.5 40,348.5C 45.4327,324.233 60.266,309.567 84.5,304.5C 77.8021,271.837 70.8021,239.337 63.5,207C 59.3042,180.903 67.6375,159.903 88.5,144C 117.541,128.821 143.041,133.321 165,157.5C 168.876,162.614 171.709,168.281 173.5,174.5C 177.122,175.659 180.789,175.825 184.5,175C 180.897,161.541 185.23,151.541 197.5,145C 212.765,143.381 228.099,143.048 243.5,144C 246.521,145.539 247.854,148.039 247.5,151.5 Z M 116.5,184.5 C 125.85,184.365 128.517,188.532 124.5,197C 115.956,200.322 112.123,197.489 113,188.5C 113.69,186.65 114.856,185.316 116.5,184.5 Z M 171.5,223.5 C 172.833,223.5 174.167,223.5 175.5,223.5C 175.395,227.548 175.728,231.548 176.5,235.5C 174.167,235.5 171.833,235.5 169.5,235.5C 169.782,231.426 170.448,227.426 171.5,223.5 Z M 187.5,285.5 C 187.699,297.208 188.365,308.875 189.5,320.5C 176.678,299.361 169.678,276.361 168.5,251.5C 171.5,251.5 174.5,251.5 177.5,251.5C 177.623,261.183 178.123,270.85 179,280.5C 180.484,284.488 183.317,286.154 187.5,285.5 Z M 461.5,251.5 C 464.5,251.5 467.5,251.5 470.5,251.5C 469.747,268.099 466.247,284.099 460,299.5C 460.205,283.502 460.705,267.502 461.5,251.5 Z M 156.5,291.5 C 157.497,291.47 158.164,291.97 158.5,293C 160.312,297.419 161.479,301.919 162,306.5C 159.699,305.133 157.199,304.466 154.5,304.5C 155.007,300.14 155.673,295.807 156.5,291.5 Z"/></g>
<g><path style="opacity:1" fill="#f79b8c" d="M 247.5,151.5 C 252.833,151.5 258.167,151.5 263.5,151.5C 263.625,155.063 265.292,157.563 268.5,159C 308.167,159.333 347.833,159.667 387.5,160C 397.131,162.296 403.631,168.129 407,177.5C 407.333,206.833 407.667,236.167 408,265.5C 408.863,269.518 411.363,271.518 415.5,271.5C 415.5,276.833 415.5,282.167 415.5,287.5C 411.91,287.544 409.41,289.211 408,292.5C 407.667,317.5 407.333,342.5 407,367.5C 404.557,369.301 402.057,370.968 399.5,372.5C 399.667,328.832 399.5,285.165 399,241.5C 397.147,235.495 393.647,230.829 388.5,227.5C 386.4,224.896 384.067,222.396 381.5,220C 364.436,211.609 351.936,216.109 344,233.5C 343.5,251.497 343.333,269.497 343.5,287.5C 331.119,285.591 325.619,278.257 327,265.5C 323.327,255.327 316.16,249.327 305.5,247.5C 287.728,234.134 273.894,237.467 264,257.5C 263.667,282.167 263.333,306.833 263,331.5C 262.768,332.737 262.268,333.737 261.5,334.5C 258.911,331.75 256.077,329.083 253,326.5C 250.806,323.446 249.139,320.112 248,316.5C 247.667,270.833 247.333,225.167 247,179.5C 243.478,170.146 236.645,165.98 226.5,167C 222.687,165.615 220.021,163.115 218.5,159.5C 226.174,159.666 233.841,159.5 241.5,159C 245.513,158.15 247.513,155.65 247.5,151.5 Z"/></g>
<g><path style="opacity:1" fill="#faba04" d="M 119.5,151.5 C 119.5,156.833 119.5,162.167 119.5,167.5C 105.869,168.964 97.8688,176.464 95.5,190C 96.5181,205.182 104.518,213.682 119.5,215.5C 119.333,246.168 119.5,276.835 120,307.5C 121.819,320.621 128.985,329.455 141.5,334C 152.63,335.693 163.63,335.86 174.5,334.5C 179.023,339.216 181.69,344.883 182.5,351.5C 147.165,351.333 111.832,351.5 76.5,352C 73.2108,353.41 71.5441,355.91 71.5,359.5C 66.1667,359.5 60.8333,359.5 55.5,359.5C 58.1576,334.344 72.1576,320.844 97.5,319C 102.406,316.686 104.24,312.853 103,307.5C 94.1901,271.786 86.5234,235.786 80,199.5C 79.3333,194.167 79.3333,188.833 80,183.5C 85.5897,163.405 98.7563,152.738 119.5,151.5 Z"/></g>
<g><path style="opacity:1" fill="#f6de0a" d="M 119.5,151.5 C 147.314,154.817 160.481,170.484 159,198.5C 152.608,235.13 144.941,271.463 136,307.5C 134.859,312.382 136.359,316.215 140.5,319C 154.45,318.694 165.783,323.861 174.5,334.5C 163.63,335.86 152.63,335.693 141.5,334C 128.985,329.455 121.819,320.621 120,307.5C 119.5,276.835 119.333,246.168 119.5,215.5C 139.389,211.73 146.556,200.063 141,180.5C 136.108,172.468 128.942,168.135 119.5,167.5C 119.5,162.167 119.5,156.833 119.5,151.5 Z"/></g>
<g><path style="opacity:1" fill="#f7654f" d="M 218.5,159.5 C 220.021,163.115 222.687,165.615 226.5,167C 236.645,165.98 243.478,170.146 247,179.5C 247.333,225.167 247.667,270.833 248,316.5C 249.139,320.112 250.806,323.446 253,326.5C 256.077,329.083 258.911,331.75 261.5,334.5C 260.457,337.056 258.79,339.223 256.5,341C 245.25,345.792 237.083,342.625 232,331.5C 231.667,285.5 231.333,239.5 231,193.5C 225.778,180.957 216.278,174.457 202.5,174C 197.987,168.568 198.654,163.901 204.5,160C 209.155,159.501 213.821,159.334 218.5,159.5 Z"/></g>
<g><path style="opacity:0.991" fill="#333231" d="M 119.5,167.5 C 128.942,168.135 136.108,172.468 141,180.5C 146.556,200.063 139.389,211.73 119.5,215.5C 104.518,213.682 96.5181,205.182 95.5,190C 97.8688,176.464 105.869,168.964 119.5,167.5 Z M 116.5,184.5 C 114.856,185.316 113.69,186.65 113,188.5C 112.123,197.489 115.956,200.322 124.5,197C 128.517,188.532 125.85,184.365 116.5,184.5 Z"/></g>
<g><path style="opacity:1" fill="#929899" d="M 175.5,191.5 C 187.171,191.333 198.838,191.5 210.5,192C 212.667,192.833 214.167,194.333 215,196.5C 215.499,200.152 215.665,203.818 215.5,207.5C 201.5,207.5 187.5,207.5 173.5,207.5C 174.815,202.256 175.482,196.923 175.5,191.5 Z"/></g>
<g><path style="opacity:1" fill="#929899" d="M 433.5,191.5 C 435.725,194.889 438.725,197.389 442.5,199C 454.829,199.5 467.162,199.667 479.5,199.5C 479.513,203.65 477.513,206.15 473.5,207C 456.837,207.5 440.17,207.667 423.5,207.5C 423.5,202.167 423.5,196.833 423.5,191.5C 426.833,191.5 430.167,191.5 433.5,191.5 Z"/></g>
<g><path style="opacity:1" fill="#ced6d8" d="M 433.5,191.5 C 447.171,191.333 460.837,191.5 474.5,192C 477.789,193.41 479.456,195.91 479.5,199.5C 467.162,199.667 454.829,199.5 442.5,199C 438.725,197.389 435.725,194.889 433.5,191.5 Z"/></g>
<g><path style="opacity:1" fill="#646a75" d="M 250.5,359.5 C 251.081,366.653 252.414,373.653 254.5,380.5C 227.589,367.764 206.089,348.764 190,323.5C 189.517,322.552 189.351,321.552 189.5,320.5C 188.365,308.875 187.699,297.208 187.5,285.5C 190.195,285.067 192.362,283.734 194,281.5C 194.264,262.151 193.764,242.818 192.5,223.5C 200.167,223.5 207.833,223.5 215.5,223.5C 215.333,259.502 215.5,295.502 216,331.5C 220.183,349.85 231.683,359.183 250.5,359.5 Z"/></g>
<g><path style="opacity:1" fill="#646a75" d="M 445.5,244.5 C 445.5,242.833 445.5,241.167 445.5,239.5C 438.167,239.5 430.833,239.5 423.5,239.5C 423.5,234.167 423.5,228.833 423.5,223.5C 431.167,223.5 438.833,223.5 446.5,223.5C 446.825,230.687 446.491,237.687 445.5,244.5 Z"/></g>
<g><path style="opacity:1" fill="#f7664f" d="M 388.5,227.5 C 393.647,230.829 397.147,235.495 399,241.5C 399.5,285.165 399.667,328.832 399.5,372.5C 397.357,374.074 395.024,375.408 392.5,376.5C 391.667,328.837 391.167,281.17 391,233.5C 389.878,231.593 389.045,229.593 388.5,227.5 Z"/></g>
<g><path style="opacity:1" fill="#646a75" d="M 367.5,387.5 C 367.667,342.499 367.5,297.499 367,252.5C 366.27,247.607 363.77,243.94 359.5,241.5C 359.638,234.194 363.304,231.027 370.5,232C 372.667,232.833 374.167,234.333 375,236.5C 375.667,285.833 375.667,335.167 375,384.5C 372.55,385.642 370.05,386.642 367.5,387.5 Z"/></g>
<g><path style="opacity:1" fill="#929899" d="M 423.5,239.5 C 430.833,239.5 438.167,239.5 445.5,239.5C 445.5,241.167 445.5,242.833 445.5,244.5C 444.131,275.608 441.965,306.608 439,337.5C 434.367,343.135 429.367,348.468 424,353.5C 423.667,333.167 423.333,312.833 423,292.5C 421.563,289.292 419.063,287.625 415.5,287.5C 415.5,282.167 415.5,276.833 415.5,271.5C 419.65,271.513 422.15,269.513 423,265.5C 423.5,256.84 423.666,248.173 423.5,239.5 Z"/></g>
<g><path style="opacity:1" fill="#929899" d="M 359.5,241.5 C 363.77,243.94 366.27,247.607 367,252.5C 367.5,297.499 367.667,342.499 367.5,387.5C 328.794,400.126 291.127,397.792 254.5,380.5C 252.414,373.653 251.081,366.653 250.5,359.5C 264.164,357.1 273.33,349.434 278,336.5C 279.449,312.877 279.949,289.211 279.5,265.5C 282.168,267.336 284.334,269.669 286,272.5C 287.246,284.11 287.913,295.776 288,307.5C 293.739,324.62 305.239,330.453 322.5,325C 324.996,323.669 326.996,321.836 328.5,319.5C 345.864,317.968 356.031,308.635 359,291.5C 359.5,274.837 359.667,258.17 359.5,241.5 Z"/></g>
<g><path style="opacity:1" fill="#f6654f" d="M 305.5,247.5 C 316.16,249.327 323.327,255.327 327,265.5C 325.619,278.257 331.119,285.591 343.5,287.5C 343.433,294.131 340.433,298.964 334.5,302C 323.915,305.124 316.415,301.624 312,291.5C 311.667,280.167 311.333,268.833 311,257.5C 309.773,253.789 307.94,250.455 305.5,247.5 Z"/></g>
<g><path style="opacity:1" fill="#646a75" d="M 328.5,319.5 C 326.996,321.836 324.996,323.669 322.5,325C 305.239,330.453 293.739,324.62 288,307.5C 287.913,295.776 287.246,284.11 286,272.5C 284.334,269.669 282.168,267.336 279.5,265.5C 279.638,258.194 283.304,255.027 290.5,256C 291.931,256.465 293.097,257.299 294,258.5C 295.289,269.403 295.956,280.403 296,291.5C 299.902,308.903 310.735,318.236 328.5,319.5 Z"/></g>
<g><path style="opacity:1" fill="#57b6ea" d="M 55.5,359.5 C 60.8333,359.5 66.1667,359.5 71.5,359.5C 72.038,361.117 72.3713,362.784 72.5,364.5C 74.2569,369.425 77.5902,372.925 82.5,375C 116.165,375.5 149.832,375.667 183.5,375.5C 183.5,380.833 183.5,386.167 183.5,391.5C 178.167,391.5 172.833,391.5 167.5,391.5C 167.518,387.363 165.518,384.863 161.5,384C 126.168,383.5 90.8349,383.333 55.5,383.5C 55.5,375.5 55.5,367.5 55.5,359.5 Z"/></g>
<g><path style="opacity:1" fill="#646a75" d="M 267.5,403.5 C 266.761,403.369 266.094,403.536 265.5,404C 280.669,425.932 301.336,439.932 327.5,446C 362.798,447.46 398.132,447.96 433.5,447.5C 432.957,458.159 432.623,468.825 432.5,479.5C 369.832,479.333 307.166,479.5 244.5,480C 241.211,481.41 239.544,483.91 239.5,487.5C 234.167,487.5 228.833,487.5 223.5,487.5C 215.986,455.442 208.152,423.442 200,391.5C 199.333,381.5 199.333,371.5 200,361.5C 219.298,380.728 241.798,394.728 267.5,403.5 Z"/></g>
<g><path style="opacity:1" fill="#929899" d="M 433.5,447.5 C 398.132,447.96 362.798,447.46 327.5,446C 301.336,439.932 280.669,425.932 265.5,404C 266.094,403.536 266.761,403.369 267.5,403.5C 300.721,413.808 334.055,414.141 367.5,404.5C 367.334,411.841 367.5,419.174 368,426.5C 372.551,438.358 380.718,441.858 392.5,437C 394.373,435.296 396.04,433.463 397.5,431.5C 410.69,431.478 419.19,425.145 423,412.5C 423.333,399.833 423.667,387.167 424,374.5C 428.853,370.737 433.52,366.737 438,362.5C 437.029,390.849 435.529,419.182 433.5,447.5 Z"/></g>
<g><path style="opacity:1" fill="#83d1f3" d="M 72.5,364.5 C 73.6828,365.504 75.0161,366.338 76.5,367C 112.165,367.5 147.832,367.667 183.5,367.5C 183.5,370.167 183.5,372.833 183.5,375.5C 149.832,375.667 116.165,375.5 82.5,375C 77.5902,372.925 74.2569,369.425 72.5,364.5 Z"/></g>
<g><path style="opacity:1" fill="#f39889" d="M 407.5,396.5 C 404.5,395.5 402.5,393.5 401.5,390.5C 403,388.821 404.833,387.488 407,386.5C 407.498,389.817 407.665,393.15 407.5,396.5 Z"/></g>
<g><path style="opacity:1" fill="#f6654e" d="M 167.5,391.5 C 172.833,391.5 178.167,391.5 183.5,391.5C 184.815,396.095 185.815,400.761 186.5,405.5C 161.853,407.326 136.853,408.159 111.5,408C 94.6837,415.789 91.1837,427.622 101,443.5C 104.271,446.216 107.771,448.549 111.5,450.5C 111.5,462.833 111.5,475.167 111.5,487.5C 106.167,487.5 100.833,487.5 95.5,487.5C 95.4506,484.901 94.4506,482.734 92.5,481C 89.3135,480.111 86.1468,479.278 83,478.5C 78.6243,471.581 74.1243,464.748 69.5,458C 65.122,454.513 60.9553,454.68 57,458.5C 52.6243,465.419 48.1243,472.252 43.5,479C 40.1177,479.824 36.7844,479.657 33.5,478.5C 40.1667,452.5 46.8333,426.5 53.5,400.5C 89.4954,399.667 125.495,399.167 161.5,399C 165.513,398.15 167.513,395.65 167.5,391.5 Z"/></g>
<g><path style="opacity:1" fill="#f5654e" d="M 401.5,390.5 C 402.5,393.5 404.5,395.5 407.5,396.5C 407.839,401.93 407.339,407.264 406,412.5C 400.083,417.181 395.416,416.181 392,409.5C 391.171,404.467 391.338,399.467 392.5,394.5C 395.404,392.88 398.404,391.547 401.5,390.5 Z"/></g>
<g><path style="opacity:1" fill="#646a75" d="M 397.5,431.5 C 396.04,433.463 394.373,435.296 392.5,437C 380.718,441.858 372.551,438.358 368,426.5C 367.5,419.174 367.334,411.841 367.5,404.5C 369.933,403.587 372.433,402.587 375,401.5C 374.074,418.031 381.574,428.031 397.5,431.5 Z"/></g>
<g><path style="opacity:1" fill="#f79b8c" d="M 186.5,405.5 C 191.788,424.649 196.788,443.983 201.5,463.5C 190.167,463.5 178.833,463.5 167.5,463.5C 167.451,460.901 166.451,458.734 164.5,457C 157.41,453.878 153.076,456.045 151.5,463.5C 143.208,463.092 135.208,461.426 127.5,458.5C 127.666,453.821 127.499,449.155 127,444.5C 126.167,442.333 124.667,440.833 122.5,440C 114.49,438.842 110.823,442.342 111.5,450.5C 107.771,448.549 104.271,446.216 101,443.5C 91.1837,427.622 94.6837,415.789 111.5,408C 136.853,408.159 161.853,407.326 186.5,405.5 Z"/></g>
<g><path style="opacity:1" fill="#f8664f" d="M 127.5,458.5 C 135.208,461.426 143.208,463.092 151.5,463.5C 151.5,468.833 151.5,474.167 151.5,479.5C 143.5,479.5 135.5,479.5 127.5,479.5C 127.5,472.5 127.5,465.5 127.5,458.5 Z"/></g>
<g><path style="opacity:1" fill="#f6654e" d="M 167.5,463.5 C 178.833,463.5 190.167,463.5 201.5,463.5C 202.675,468.531 204.008,473.531 205.5,478.5C 192.851,479.499 180.184,479.832 167.5,479.5C 167.5,474.167 167.5,468.833 167.5,463.5 Z"/></g>
</svg>
