<?xml version="1.0" encoding="UTF-8"?>
<!DOCTYPE svg PUBLIC "-//W3C//DTD SVG 1.1//EN" "http://www.w3.org/Graphics/SVG/1.1/DTD/svg11.dtd">
<svg xmlns="http://www.w3.org/2000/svg" version="1.1" width="512px" height="512px" style="shape-rendering:geometricPrecision; text-rendering:geometricPrecision; image-rendering:optimizeQuality; fill-rule:evenodd; clip-rule:evenodd" xmlns:xlink="http://www.w3.org/1999/xlink">
<g><path style="opacity:0.991" fill="#f9e008" d="M 478.5,185.5 C 404.027,139.762 329.694,93.7616 255.5,47.5C 181.306,93.7616 106.973,139.762 32.5,185.5C 29.4409,180.387 26.6076,175.053 24,169.5C 23.3162,168.216 23.4829,167.049 24.5,166C 101.391,118.265 178.391,70.7652 255.5,23.5C 332.609,70.7652 409.609,118.265 486.5,166C 487.517,167.049 487.684,168.216 487,169.5C 484.392,175.053 481.559,180.387 478.5,185.5 Z"/></g>
<g><path style="opacity:1" fill="#fabc06" d="M 478.5,185.5 C 476.775,190.618 474.275,195.285 471,199.5C 465.936,196.383 460.769,193.383 455.5,190.5C 452.35,187.421 448.683,185.087 444.5,183.5C 382.032,143.093 319.032,103.426 255.5,64.5C 191.968,103.426 128.968,143.093 66.5,183.5C 62.3171,185.087 58.6505,187.421 55.5,190.5C 50.2628,193.369 45.0962,196.369 40,199.5C 36.7246,195.285 34.2246,190.618 32.5,185.5C 106.973,139.762 181.306,93.7616 255.5,47.5C 329.694,93.7616 404.027,139.762 478.5,185.5 Z"/></g>
<g><path style="opacity:1" fill="#656b75" d="M 444.5,183.5 C 431.167,183.5 417.833,183.5 404.5,183.5C 355.068,151.275 305.401,119.275 255.5,87.5C 205.833,119.333 156.167,151.167 106.5,183C 93.1708,183.5 79.8375,183.667 66.5,183.5C 128.968,143.093 191.968,103.426 255.5,64.5C 319.032,103.426 382.032,143.093 444.5,183.5 Z"/></g>
<g><path style="opacity:1" fill="#929899" d="M 404.5,183.5 C 368.167,183.5 331.833,183.5 295.5,183.5C 295.5,162.167 295.5,140.833 295.5,119.5C 282.5,119.5 269.5,119.5 256.5,119.5C 256.167,119.5 255.833,119.5 255.5,119.5C 242.5,119.5 229.5,119.5 216.5,119.5C 215.503,140.66 215.169,161.993 215.5,183.5C 191.5,183.5 167.5,183.5 143.5,183.5C 143.333,205.503 143.5,227.503 144,249.5C 144.474,262.699 146.974,275.366 151.5,287.5C 150.964,290.698 151.631,293.365 153.5,295.5C 155.261,300.018 157.261,304.351 159.5,308.5C 157.401,319.917 160.068,329.917 167.5,338.5C 167.5,340.167 167.5,341.833 167.5,343.5C 147.395,341.138 134.228,349.472 128,368.5C 127.5,376.159 127.334,383.826 127.5,391.5C 124.833,391.5 122.167,391.5 119.5,391.5C 114.167,391.5 108.833,391.5 103.5,391.5C 92.8333,391.5 82.1667,391.5 71.5,391.5C 66.1667,391.5 60.8333,391.5 55.5,391.5C 55.5,375.5 55.5,359.5 55.5,343.5C 66.3464,343.828 77.0131,343.494 87.5,342.5C 87.5,326.833 87.5,311.167 87.5,295.5C 87.5,295.167 87.5,294.833 87.5,294.5C 87.5,278.833 87.5,263.167 87.5,247.5C 76.8333,247.5 66.1667,247.5 55.5,247.5C 55.5,228.5 55.5,209.5 55.5,190.5C 58.6505,187.421 62.3171,185.087 66.5,183.5C 79.8375,183.667 93.1708,183.5 106.5,183C 156.167,151.167 205.833,119.333 255.5,87.5C 305.401,119.275 355.068,151.275 404.5,183.5 Z"/></g>
<g><path style="opacity:1" fill="#56b6ea" d="M 216.5,119.5 C 229.5,119.5 242.5,119.5 255.5,119.5C 255.5,140.833 255.5,162.167 255.5,183.5C 255.167,183.5 254.833,183.5 254.5,183.5C 242.088,172.78 229.422,162.28 216.5,152C 229.167,151.667 241.833,151.333 254.5,151C 241.578,140.72 228.912,130.22 216.5,119.5 Z"/></g>
<g><path style="opacity:1" fill="#56b6ea" d="M 256.5,119.5 C 269.5,119.5 282.5,119.5 295.5,119.5C 295.5,140.833 295.5,162.167 295.5,183.5C 295.167,183.5 294.833,183.5 294.5,183.5C 282.088,172.78 269.422,162.28 256.5,152C 269.167,151.667 281.833,151.333 294.5,151C 281.578,140.72 268.912,130.22 256.5,119.5 Z"/></g>
<g><path style="opacity:1" fill="#4891d3" d="M 216.5,119.5 C 228.912,130.22 241.578,140.72 254.5,151C 241.833,151.333 229.167,151.667 216.5,152C 229.422,162.28 242.088,172.78 254.5,183.5C 241.5,183.5 228.5,183.5 215.5,183.5C 215.169,161.993 215.503,140.66 216.5,119.5 Z"/></g>
<g><path style="opacity:1" fill="#4891d3" d="M 255.5,119.5 C 255.833,119.5 256.167,119.5 256.5,119.5C 268.912,130.22 281.578,140.72 294.5,151C 281.833,151.333 269.167,151.667 256.5,152C 269.422,162.28 282.088,172.78 294.5,183.5C 281.5,183.5 268.5,183.5 255.5,183.5C 255.5,162.167 255.5,140.833 255.5,119.5 Z"/></g>
<g><path style="opacity:1" fill="#cfd7d9" d="M 215.5,183.5 C 228.5,183.5 241.5,183.5 254.5,183.5C 254.833,183.5 255.167,183.5 255.5,183.5C 268.5,183.5 281.5,183.5 294.5,183.5C 294.833,183.5 295.167,183.5 295.5,183.5C 331.833,183.5 368.167,183.5 404.5,183.5C 417.833,183.5 431.167,183.5 444.5,183.5C 448.683,185.087 452.35,187.421 455.5,190.5C 455.5,260.167 455.5,329.833 455.5,399.5C 444.833,399.5 434.167,399.5 423.5,399.5C 423.5,375.5 423.5,351.5 423.5,327.5C 391.5,327.5 359.5,327.5 327.5,327.5C 327.5,351.5 327.5,375.5 327.5,399.5C 290.534,403.226 255.867,396.226 223.5,378.5C 223.5,377.5 223.5,376.5 223.5,375.5C 238.837,375.667 254.17,375.5 269.5,375C 278.751,372.584 284.417,366.75 286.5,357.5C 287.633,343.211 287.799,328.878 287,314.5C 285.389,310.725 282.889,307.725 279.5,305.5C 278.994,301.993 279.66,298.826 281.5,296C 296.746,294.921 304.079,286.755 303.5,271.5C 311.507,271.666 319.507,271.5 327.5,271C 315.995,254.67 304.328,238.504 292.5,222.5C 281.599,237.956 270.932,253.623 260.5,269.5C 269.475,270.498 278.475,270.832 287.5,270.5C 287.98,273.685 287.314,276.519 285.5,279C 269.352,280.443 262.019,289.277 263.5,305.5C 260.111,307.725 257.611,310.725 256,314.5C 255.5,324.161 255.334,333.828 255.5,343.5C 252.833,343.5 250.167,343.5 247.5,343.5C 234.167,343.5 220.833,343.5 207.5,343.5C 204.833,343.5 202.167,343.5 199.5,343.5C 199.107,340.487 199.774,337.82 201.5,335.5C 204.097,332.644 205.93,329.311 207,325.5C 207.5,318.174 207.666,310.841 207.5,303.5C 207.5,300.833 207.5,298.167 207.5,295.5C 210.167,295.5 212.833,295.5 215.5,295.5C 215.782,290.073 215.449,284.74 214.5,279.5C 211.415,267.914 204.082,260.414 192.5,257C 192.033,251.368 189.033,248.201 183.5,247.5C 178.027,247.974 175.36,250.974 175.5,256.5C 172.843,256.935 170.509,257.935 168.5,259.5C 157.745,265.667 152.078,275 151.5,287.5C 146.974,275.366 144.474,262.699 144,249.5C 143.5,227.503 143.333,205.503 143.5,183.5C 167.5,183.5 191.5,183.5 215.5,183.5 Z"/></g>
<g><path style="opacity:1" fill="#f8e014" d="M 303.5,271.5 C 303.867,267.033 303.367,262.7 302,258.5C 297.631,254.621 293.298,254.621 289,258.5C 287.646,262.363 287.146,266.363 287.5,270.5C 278.475,270.832 269.475,270.498 260.5,269.5C 270.932,253.623 281.599,237.956 292.5,222.5C 304.328,238.504 315.995,254.67 327.5,271C 319.507,271.5 311.507,271.666 303.5,271.5 Z"/></g>
<g><path style="opacity:1" fill="#83d1f3" d="M 55.5,248.5 C 55.5,248.167 55.5,247.833 55.5,247.5C 66.1667,247.5 76.8333,247.5 87.5,247.5C 87.5,263.167 87.5,278.833 87.5,294.5C 76.8333,279.167 66.1667,263.833 55.5,248.5 Z"/></g>
<g><path style="opacity:1" fill="#f7664f" d="M 183.5,247.5 C 183.334,253.509 183.501,259.509 184,265.5C 185.065,269.296 187.565,271.63 191.5,272.5C 190.833,274.167 190.167,275.833 189.5,277.5C 190.376,278.251 191.376,278.751 192.5,279C 199.826,279.5 207.159,279.666 214.5,279.5C 215.449,284.74 215.782,290.073 215.5,295.5C 212.833,295.5 210.167,295.5 207.5,295.5C 191.5,295.5 175.5,295.5 159.5,295.5C 157.5,295.5 155.5,295.5 153.5,295.5C 151.631,293.365 150.964,290.698 151.5,287.5C 152.078,275 157.745,265.667 168.5,259.5C 170.868,261.843 173.035,264.509 175,267.5C 175.499,263.848 175.665,260.182 175.5,256.5C 175.36,250.974 178.027,247.974 183.5,247.5 Z"/></g>
<g><path style="opacity:1" fill="#f79c8d" d="M 183.5,247.5 C 189.033,248.201 192.033,251.368 192.5,257C 204.082,260.414 211.415,267.914 214.5,279.5C 207.159,279.666 199.826,279.5 192.5,279C 191.376,278.751 190.376,278.251 189.5,277.5C 190.167,275.833 190.833,274.167 191.5,272.5C 187.565,271.63 185.065,269.296 184,265.5C 183.501,259.509 183.334,253.509 183.5,247.5 Z"/></g>
<g><path style="opacity:1" fill="#57b7eb" d="M 55.5,248.5 C 66.1667,263.833 76.8333,279.167 87.5,294.5C 87.5,294.833 87.5,295.167 87.5,295.5C 76.8333,295.5 66.1667,295.5 55.5,295.5C 55.5,279.833 55.5,264.167 55.5,248.5 Z"/></g>
<g><path style="opacity:1" fill="#fbbc0a" d="M 303.5,271.5 C 304.079,286.755 296.746,294.921 281.5,296C 279.66,298.826 278.994,301.993 279.5,305.5C 279.837,309.308 279.337,312.974 278,316.5C 276.266,318.451 274.099,319.451 271.5,319.5C 268.901,319.451 266.734,318.451 265,316.5C 263.663,312.974 263.163,309.308 263.5,305.5C 262.019,289.277 269.352,280.443 285.5,279C 287.314,276.519 287.98,273.685 287.5,270.5C 287.146,266.363 287.646,262.363 289,258.5C 293.298,254.621 297.631,254.621 302,258.5C 303.367,262.7 303.867,267.033 303.5,271.5 Z"/></g>
<g><path style="opacity:1" fill="#f69c8d" d="M 175.5,256.5 C 175.665,260.182 175.499,263.848 175,267.5C 173.035,264.509 170.868,261.843 168.5,259.5C 170.509,257.935 172.843,256.935 175.5,256.5 Z"/></g>
<g><path style="opacity:1" fill="#83d1f3" d="M 55.5,296.5 C 55.5,296.167 55.5,295.833 55.5,295.5C 66.1667,295.5 76.8333,295.5 87.5,295.5C 87.5,311.167 87.5,326.833 87.5,342.5C 76.8333,327.167 66.1667,311.833 55.5,296.5 Z"/></g>
<g><path style="opacity:1" fill="#cdd5d7" d="M 153.5,295.5 C 155.5,295.5 157.5,295.5 159.5,295.5C 159.5,299.833 159.5,304.167 159.5,308.5C 157.261,304.351 155.261,300.018 153.5,295.5 Z"/></g>
<g><path style="opacity:1" fill="#fbbb05" d="M 159.5,295.5 C 175.5,295.5 191.5,295.5 207.5,295.5C 207.5,298.167 207.5,300.833 207.5,303.5C 196.833,303.5 186.167,303.5 175.5,303.5C 173.648,322.963 182.315,333.629 201.5,335.5C 199.774,337.82 199.107,340.487 199.5,343.5C 199.666,347.514 199.499,351.514 199,355.5C 198.768,356.737 198.268,357.737 197.5,358.5C 189.03,361.263 182.363,358.93 177.5,351.5C 184.342,350.413 190.008,347.246 194.5,342C 184.991,344.846 175.991,343.679 167.5,338.5C 160.068,329.917 157.401,319.917 159.5,308.5C 159.5,304.167 159.5,299.833 159.5,295.5 Z"/></g>
<g><path style="opacity:1" fill="#57b7eb" d="M 55.5,296.5 C 66.1667,311.833 76.8333,327.167 87.5,342.5C 77.0131,343.494 66.3464,343.828 55.5,343.5C 55.5,327.833 55.5,312.167 55.5,296.5 Z"/></g>
<g><path style="opacity:1" fill="#f8e00b" d="M 207.5,303.5 C 207.666,310.841 207.5,318.174 207,325.5C 205.93,329.311 204.097,332.644 201.5,335.5C 182.315,333.629 173.648,322.963 175.5,303.5C 186.167,303.5 196.833,303.5 207.5,303.5 Z"/></g>
<g><path style="opacity:1" fill="#4891d2" d="M 263.5,305.5 C 263.163,309.308 263.663,312.974 265,316.5C 266.734,318.451 268.901,319.451 271.5,319.5C 271.334,326.508 271.5,333.508 272,340.5C 274.163,348.492 278.996,354.159 286.5,357.5C 284.417,366.75 278.751,372.584 269.5,375C 254.17,375.5 238.837,375.667 223.5,375.5C 223.5,376.5 223.5,377.5 223.5,378.5C 223.5,382.833 223.5,387.167 223.5,391.5C 216.013,391.81 210.846,395.477 208,402.5C 207.5,409.492 207.334,416.492 207.5,423.5C 204.833,423.5 202.167,423.5 199.5,423.5C 199.5,418.167 199.5,412.833 199.5,407.5C 199.5,402.167 199.5,396.833 199.5,391.5C 188.833,391.5 178.167,391.5 167.5,391.5C 162.167,391.5 156.833,391.5 151.5,391.5C 143.5,391.5 135.5,391.5 127.5,391.5C 127.334,383.826 127.5,376.159 128,368.5C 134.228,349.472 147.395,341.138 167.5,343.5C 165.342,359.832 172.342,367.665 188.5,367C 192.679,365.319 195.679,362.485 197.5,358.5C 198.268,357.737 198.768,356.737 199,355.5C 199.499,351.514 199.666,347.514 199.5,343.5C 202.167,343.5 204.833,343.5 207.5,343.5C 209.051,355.038 215.717,360.371 227.5,359.5C 239.256,360.403 245.922,355.069 247.5,343.5C 250.167,343.5 252.833,343.5 255.5,343.5C 255.334,333.828 255.5,324.161 256,314.5C 257.611,310.725 260.111,307.725 263.5,305.5 Z"/></g>
<g><path style="opacity:1" fill="#57b7ea" d="M 279.5,305.5 C 282.889,307.725 285.389,310.725 287,314.5C 287.799,328.878 287.633,343.211 286.5,357.5C 278.996,354.159 274.163,348.492 272,340.5C 271.5,333.508 271.334,326.508 271.5,319.5C 274.099,319.451 276.266,318.451 278,316.5C 279.337,312.974 279.837,309.308 279.5,305.5 Z"/></g>
<g><path style="opacity:1" fill="#fbbc04" d="M 423.5,399.5 C 423.5,407.5 423.5,415.5 423.5,423.5C 423.5,444.833 423.5,466.167 423.5,487.5C 391.5,487.5 359.5,487.5 327.5,487.5C 327.5,482.167 327.5,476.833 327.5,471.5C 327.5,466.167 327.5,460.833 327.5,455.5C 327.5,450.167 327.5,444.833 327.5,439.5C 327.5,434.167 327.5,428.833 327.5,423.5C 327.5,415.5 327.5,407.5 327.5,399.5C 327.5,375.5 327.5,351.5 327.5,327.5C 359.5,327.5 391.5,327.5 423.5,327.5C 423.5,351.5 423.5,375.5 423.5,399.5 Z"/></g>
<g><path style="opacity:1" fill="#e49730" d="M 167.5,338.5 C 175.991,343.679 184.991,344.846 194.5,342C 190.008,347.246 184.342,350.413 177.5,351.5C 182.363,358.93 189.03,361.263 197.5,358.5C 195.679,362.485 192.679,365.319 188.5,367C 172.342,367.665 165.342,359.832 167.5,343.5C 167.5,341.833 167.5,340.167 167.5,338.5 Z"/></g>
<g><path style="opacity:1" fill="#56b6ea" d="M 207.5,343.5 C 220.833,343.5 234.167,343.5 247.5,343.5C 245.922,355.069 239.256,360.403 227.5,359.5C 215.717,360.371 209.051,355.038 207.5,343.5 Z"/></g>
<g><path style="opacity:1" fill="#f8e009" d="M 407.5,420.5 C 405.968,418.479 403.968,416.979 401.5,416C 397.167,415.333 392.833,415.333 388.5,416C 381.941,420.916 381.941,425.916 388.5,431C 392.833,431.667 397.167,431.667 401.5,431C 404.35,429.979 406.35,428.146 407.5,425.5C 407.5,437.833 407.5,450.167 407.5,462.5C 376.742,457.244 358.242,439.244 352,408.5C 351.5,389.503 351.333,370.503 351.5,351.5C 363.505,351.333 375.505,351.5 387.5,352C 397.131,354.296 403.631,360.129 407,369.5C 407.5,386.497 407.667,403.497 407.5,420.5 Z"/></g>
<g><path style="opacity:1" fill="#93999a" d="M 223.5,378.5 C 255.867,396.226 290.534,403.226 327.5,399.5C 327.5,407.5 327.5,415.5 327.5,423.5C 316.833,423.5 306.167,423.5 295.5,423.5C 290.167,423.5 284.833,423.5 279.5,423.5C 268.833,423.5 258.167,423.5 247.5,423.5C 242.167,423.5 236.833,423.5 231.5,423.5C 228.833,423.5 226.167,423.5 223.5,423.5C 223.5,412.833 223.5,402.167 223.5,391.5C 223.5,387.167 223.5,382.833 223.5,378.5 Z"/></g>
<g><path style="opacity:1" fill="#f8664f" d="M 55.5,391.5 C 60.8333,391.5 66.1667,391.5 71.5,391.5C 71.6258,398.628 74.9591,403.628 81.5,406.5C 88.776,407.465 96.1093,407.799 103.5,407.5C 103.5,402.167 103.5,396.833 103.5,391.5C 108.833,391.5 114.167,391.5 119.5,391.5C 119.626,398.628 122.959,403.628 129.5,406.5C 136.776,407.465 144.109,407.799 151.5,407.5C 151.5,402.167 151.5,396.833 151.5,391.5C 156.833,391.5 162.167,391.5 167.5,391.5C 167.626,398.628 170.959,403.628 177.5,406.5C 184.776,407.465 192.109,407.799 199.5,407.5C 199.5,412.833 199.5,418.167 199.5,423.5C 199.626,430.628 202.959,435.628 209.5,438.5C 216.776,439.465 224.109,439.799 231.5,439.5C 231.5,434.167 231.5,428.833 231.5,423.5C 236.833,423.5 242.167,423.5 247.5,423.5C 247.626,430.628 250.959,435.628 257.5,438.5C 264.776,439.465 272.109,439.799 279.5,439.5C 279.5,434.167 279.5,428.833 279.5,423.5C 284.833,423.5 290.167,423.5 295.5,423.5C 295.626,430.628 298.959,435.628 305.5,438.5C 312.776,439.465 320.109,439.799 327.5,439.5C 327.5,444.833 327.5,450.167 327.5,455.5C 322.167,455.5 316.833,455.5 311.5,455.5C 312.517,465.183 317.85,470.517 327.5,471.5C 327.5,476.833 327.5,482.167 327.5,487.5C 236.833,487.5 146.167,487.5 55.5,487.5C 55.5,455.5 55.5,423.5 55.5,391.5 Z"/></g>
<g><path style="opacity:1" fill="#f89b8c" d="M 71.5,391.5 C 82.1667,391.5 92.8333,391.5 103.5,391.5C 103.5,396.833 103.5,402.167 103.5,407.5C 96.1093,407.799 88.776,407.465 81.5,406.5C 74.9591,403.628 71.6258,398.628 71.5,391.5 Z"/></g>
<g><path style="opacity:1" fill="#f89b8c" d="M 119.5,391.5 C 122.167,391.5 124.833,391.5 127.5,391.5C 135.5,391.5 143.5,391.5 151.5,391.5C 151.5,396.833 151.5,402.167 151.5,407.5C 144.109,407.799 136.776,407.465 129.5,406.5C 122.959,403.628 119.626,398.628 119.5,391.5 Z"/></g>
<g><path style="opacity:1" fill="#f89b8c" d="M 167.5,391.5 C 178.167,391.5 188.833,391.5 199.5,391.5C 199.5,396.833 199.5,402.167 199.5,407.5C 192.109,407.799 184.776,407.465 177.5,406.5C 170.959,403.628 167.626,398.628 167.5,391.5 Z"/></g>
<g><path style="opacity:1" fill="#56b6ea" d="M 223.5,391.5 C 223.5,402.167 223.5,412.833 223.5,423.5C 218.167,423.5 212.833,423.5 207.5,423.5C 207.334,416.492 207.5,409.492 208,402.5C 210.846,395.477 216.013,391.81 223.5,391.5 Z"/></g>
<g><path style="opacity:1" fill="#929999" d="M 423.5,399.5 C 434.167,399.5 444.833,399.5 455.5,399.5C 455.5,407.5 455.5,415.5 455.5,423.5C 450.167,423.5 444.833,423.5 439.5,423.5C 434.167,423.5 428.833,423.5 423.5,423.5C 423.5,415.5 423.5,407.5 423.5,399.5 Z"/></g>
<g><path style="opacity:1" fill="#949998" d="M 407.5,420.5 C 407.5,422.167 407.5,423.833 407.5,425.5C 406.35,428.146 404.35,429.979 401.5,431C 397.167,431.667 392.833,431.667 388.5,431C 381.941,425.916 381.941,420.916 388.5,416C 392.833,415.333 397.167,415.333 401.5,416C 403.968,416.979 405.968,418.479 407.5,420.5 Z"/></g>
<g><path style="opacity:1" fill="#f89a8b" d="M 71.5,423.5 C 76.8333,423.5 82.1667,423.5 87.5,423.5C 87.5,428.833 87.5,434.167 87.5,439.5C 77.8499,438.517 72.5166,433.183 71.5,423.5 Z"/></g>
<g><path style="opacity:1" fill="#f89b8c" d="M 103.5,423.5 C 114.167,423.5 124.833,423.5 135.5,423.5C 135.5,428.833 135.5,434.167 135.5,439.5C 128.492,439.666 121.492,439.5 114.5,439C 107.496,436.168 103.829,431.001 103.5,423.5 Z"/></g>
<g><path style="opacity:1" fill="#f89b8c" d="M 151.5,423.5 C 162.167,423.5 172.833,423.5 183.5,423.5C 183.5,428.833 183.5,434.167 183.5,439.5C 176.492,439.666 169.492,439.5 162.5,439C 155.496,436.168 151.829,431.001 151.5,423.5 Z"/></g>
<g><path style="opacity:1" fill="#f89b8c" d="M 199.5,423.5 C 202.167,423.5 204.833,423.5 207.5,423.5C 212.833,423.5 218.167,423.5 223.5,423.5C 226.167,423.5 228.833,423.5 231.5,423.5C 231.5,428.833 231.5,434.167 231.5,439.5C 224.109,439.799 216.776,439.465 209.5,438.5C 202.959,435.628 199.626,430.628 199.5,423.5 Z"/></g>
<g><path style="opacity:1" fill="#f89b8c" d="M 247.5,423.5 C 258.167,423.5 268.833,423.5 279.5,423.5C 279.5,428.833 279.5,434.167 279.5,439.5C 272.109,439.799 264.776,439.465 257.5,438.5C 250.959,435.628 247.626,430.628 247.5,423.5 Z"/></g>
<g><path style="opacity:1" fill="#f89b8c" d="M 295.5,423.5 C 306.167,423.5 316.833,423.5 327.5,423.5C 327.5,428.833 327.5,434.167 327.5,439.5C 320.109,439.799 312.776,439.465 305.5,438.5C 298.959,435.628 295.626,430.628 295.5,423.5 Z"/></g>
<g><path style="opacity:1" fill="#f8664f" d="M 423.5,423.5 C 428.833,423.5 434.167,423.5 439.5,423.5C 440.517,433.183 445.85,438.517 455.5,439.5C 455.5,444.833 455.5,450.167 455.5,455.5C 450.167,455.5 444.833,455.5 439.5,455.5C 440.517,465.183 445.85,470.517 455.5,471.5C 455.5,476.833 455.5,482.167 455.5,487.5C 444.833,487.5 434.167,487.5 423.5,487.5C 423.5,466.167 423.5,444.833 423.5,423.5 Z"/></g>
<g><path style="opacity:1" fill="#f89a8b" d="M 439.5,423.5 C 444.833,423.5 450.167,423.5 455.5,423.5C 455.5,428.833 455.5,434.167 455.5,439.5C 445.85,438.517 440.517,433.183 439.5,423.5 Z"/></g>
<g><path style="opacity:1" fill="#f89b8c" d="M 71.5,455.5 C 82.1667,455.5 92.8333,455.5 103.5,455.5C 103.5,460.833 103.5,466.167 103.5,471.5C 96.4921,471.666 89.4921,471.5 82.5,471C 75.4955,468.168 71.8289,463.001 71.5,455.5 Z"/></g>
<g><path style="opacity:1" fill="#f89b8c" d="M 119.5,455.5 C 130.167,455.5 140.833,455.5 151.5,455.5C 151.5,460.833 151.5,466.167 151.5,471.5C 144.492,471.666 137.492,471.5 130.5,471C 123.496,468.168 119.829,463.001 119.5,455.5 Z"/></g>
<g><path style="opacity:1" fill="#f89b8c" d="M 167.5,455.5 C 178.167,455.5 188.833,455.5 199.5,455.5C 199.5,460.833 199.5,466.167 199.5,471.5C 192.492,471.666 185.492,471.5 178.5,471C 171.496,468.168 167.829,463.001 167.5,455.5 Z"/></g>
<g><path style="opacity:1" fill="#f89b8c" d="M 215.5,455.5 C 226.167,455.5 236.833,455.5 247.5,455.5C 247.5,460.833 247.5,466.167 247.5,471.5C 240.492,471.666 233.492,471.5 226.5,471C 219.496,468.168 215.829,463.001 215.5,455.5 Z"/></g>
<g><path style="opacity:1" fill="#f89b8c" d="M 263.5,455.5 C 274.167,455.5 284.833,455.5 295.5,455.5C 295.5,460.833 295.5,466.167 295.5,471.5C 288.492,471.666 281.492,471.5 274.5,471C 267.496,468.168 263.829,463.001 263.5,455.5 Z"/></g>
<g><path style="opacity:1" fill="#f89a8b" d="M 327.5,455.5 C 327.5,460.833 327.5,466.167 327.5,471.5C 317.85,470.517 312.517,465.183 311.5,455.5C 316.833,455.5 322.167,455.5 327.5,455.5 Z"/></g>
<g><path style="opacity:1" fill="#f89a8b" d="M 455.5,455.5 C 455.5,460.833 455.5,466.167 455.5,471.5C 445.85,470.517 440.517,465.183 439.5,455.5C 444.833,455.5 450.167,455.5 455.5,455.5 Z"/></g>
</svg>
