<?xml version="1.0" encoding="UTF-8"?>
<!DOCTYPE svg PUBLIC "-//W3C//DTD SVG 1.1//EN" "http://www.w3.org/Graphics/SVG/1.1/DTD/svg11.dtd">
<svg xmlns="http://www.w3.org/2000/svg" version="1.1" width="512px" height="512px" style="shape-rendering:geometricPrecision; text-rendering:geometricPrecision; image-rendering:optimizeQuality; fill-rule:evenodd; clip-rule:evenodd" xmlns:xlink="http://www.w3.org/1999/xlink">
<g><path style="opacity:1" fill="#fbbc04" d="M 119.5,143.5 C 119.81,154.581 119.477,165.581 118.5,176.5C 109.705,177.628 105.039,182.628 104.5,191.5C 104.912,199.911 109.245,204.911 117.5,206.5C 119.317,239.946 120.15,273.613 120,307.5C 122.116,321.955 130.283,331.121 144.5,335C 157.829,335.5 171.163,335.667 184.5,335.5C 186.136,336.749 187.303,338.416 188,340.5C 189.485,344.449 190.651,348.449 191.5,352.5C 191.5,354.833 191.5,357.167 191.5,359.5C 151.5,359.5 111.5,359.5 71.5,359.5C 63.5,359.5 55.5,359.5 47.5,359.5C 48.4637,334.364 61.1304,318.531 85.5,312C 88.4816,311.502 91.4816,311.335 94.5,311.5C 86.4935,274.268 78.4935,237.435 70.5,201C 68.8005,181.756 75.1338,165.756 89.5,153C 98.3602,146.325 108.36,143.158 119.5,143.5 Z"/></g>
<g><path style="opacity:0.997" fill="#f8e00a" d="M 119.5,143.5 C 145.468,144.797 161.468,158.13 167.5,183.5C 167.626,194.28 166.626,204.946 164.5,215.5C 163.546,222.272 162.212,228.939 160.5,235.5C 157.402,247.326 155.068,259.326 153.5,271.5C 150.009,284.606 147.009,297.939 144.5,311.5C 152.288,311.281 159.621,312.948 166.5,316.5C 173.872,321.539 179.872,327.872 184.5,335.5C 171.163,335.667 157.829,335.5 144.5,335C 130.283,331.121 122.116,321.955 120,307.5C 120.15,273.613 119.317,239.946 117.5,206.5C 130.444,206.051 135.944,199.384 134,186.5C 131.186,179.51 126.019,176.177 118.5,176.5C 119.477,165.581 119.81,154.581 119.5,143.5 Z"/></g>
<g><path style="opacity:1" fill="#f7664f" d="M 215.5,151.5 C 216.081,158.821 219.748,163.987 226.5,167C 236.432,166.294 243.266,170.461 247,179.5C 247.333,225.167 247.667,270.833 248,316.5C 251.518,327.187 258.684,333.854 269.5,336.5C 266.077,343.592 260.743,348.592 253.5,351.5C 238.709,352.855 228.876,346.522 224,332.5C 223.5,293.501 223.333,254.501 223.5,215.5C 223.932,207.721 223.432,200.054 222,192.5C 216.967,185.567 210.134,182.234 201.5,182.5C 200.078,182.291 198.745,181.791 197.5,181C 189.822,174.496 188.989,166.33 195,156.5C 197.08,154.877 199.246,153.377 201.5,152C 206.155,151.501 210.821,151.334 215.5,151.5 Z"/></g>
<g><path style="opacity:0.999" fill="#f79b8c" d="M 215.5,151.5 C 274.168,151.333 332.834,151.5 391.5,152C 401.31,154.646 408.477,160.48 413,169.5C 414.975,173.963 415.808,178.629 415.5,183.5C 415.5,194.167 415.5,204.833 415.5,215.5C 415.5,223.5 415.5,231.5 415.5,239.5C 415.5,279.833 415.5,320.167 415.5,360.5C 410.921,365.461 405.587,369.461 399.5,372.5C 399.667,328.832 399.5,285.165 399,241.5C 394.113,228.49 384.947,222.823 371.5,224.5C 359.786,222.696 353.119,227.696 351.5,239.5C 351.5,255.5 351.5,271.5 351.5,287.5C 340.717,289.856 332.884,286.19 328,276.5C 328.886,261.393 322.052,251.893 307.5,248C 301.984,247.183 296.65,247.349 291.5,248.5C 279.786,246.696 273.119,251.696 271.5,263.5C 271.667,286.502 271.5,309.502 271,332.5C 270.79,334.058 270.29,335.391 269.5,336.5C 258.684,333.854 251.518,327.187 248,316.5C 247.667,270.833 247.333,225.167 247,179.5C 243.266,170.461 236.432,166.294 226.5,167C 219.748,163.987 216.081,158.821 215.5,151.5 Z"/></g>
<g><path style="opacity:1" fill="#939899" d="M 201.5,182.5 C 210.134,182.234 216.967,185.567 222,192.5C 223.432,200.054 223.932,207.721 223.5,215.5C 210.167,215.5 196.833,215.5 183.5,215.5C 177.167,215.5 170.833,215.5 164.5,215.5C 166.626,204.946 167.626,194.28 167.5,183.5C 179.012,183.828 190.346,183.495 201.5,182.5 Z"/></g>
<g><path style="opacity:1" fill="#93999a" d="M 415.5,183.5 C 420.833,183.5 426.167,183.5 431.5,183.5C 431.829,191.001 435.496,196.168 442.5,199C 457.496,199.5 472.496,199.667 487.5,199.5C 487.823,207.019 484.49,212.186 477.5,215C 477.833,215.333 478.167,215.667 478.5,216C 470.893,215.605 463.226,215.438 455.5,215.5C 442.167,215.5 428.833,215.5 415.5,215.5C 415.5,204.833 415.5,194.167 415.5,183.5 Z"/></g>
<g><path style="opacity:0.99" fill="#cfd7d9" d="M 431.5,183.5 C 446.837,183.333 462.17,183.5 477.5,184C 484.49,186.814 487.823,191.981 487.5,199.5C 472.496,199.667 457.496,199.5 442.5,199C 435.496,196.168 431.829,191.001 431.5,183.5 Z"/></g>
<g><path style="opacity:1" fill="#656b76" d="M 183.5,215.5 C 196.833,215.5 210.167,215.5 223.5,215.5C 223.333,254.501 223.5,293.501 224,332.5C 228.876,346.522 238.709,352.855 253.5,351.5C 251.956,354.61 250.956,357.944 250.5,361.5C 251.58,367.902 252.914,374.235 254.5,380.5C 228.636,368.479 207.803,350.479 192,326.5C 190.878,324.593 190.045,322.593 189.5,320.5C 187.699,297.542 186.365,274.542 185.5,251.5C 185.821,245.974 185.488,240.64 184.5,235.5C 183.62,228.877 183.287,222.211 183.5,215.5 Z"/></g>
<g><path style="opacity:1" fill="#656b76" d="M 415.5,215.5 C 428.833,215.5 442.167,215.5 455.5,215.5C 455.713,222.211 455.38,228.877 454.5,235.5C 453.566,236.568 453.232,237.901 453.5,239.5C 440.833,239.5 428.167,239.5 415.5,239.5C 415.5,231.5 415.5,223.5 415.5,215.5 Z"/></g>
<g><path style="opacity:1" fill="#656b76" d="M 371.5,224.5 C 377.853,226.02 381.686,230.02 383,236.5C 383.5,284.832 383.667,333.166 383.5,381.5C 378.249,383.695 372.916,385.695 367.5,387.5C 367.667,341.832 367.5,296.165 367,250.5C 364.154,243.477 358.987,239.81 351.5,239.5C 353.119,227.696 359.786,222.696 371.5,224.5 Z"/></g>
<g><path style="opacity:1" fill="#f7664f" d="M 371.5,224.5 C 384.947,222.823 394.113,228.49 399,241.5C 399.5,285.165 399.667,328.832 399.5,372.5C 394.243,375.489 388.909,378.489 383.5,381.5C 383.667,333.166 383.5,284.832 383,236.5C 381.686,230.02 377.853,226.02 371.5,224.5 Z"/></g>
<g><path style="opacity:0.988" fill="#cfd7d8" d="M 160.5,235.5 C 168.5,235.5 176.5,235.5 184.5,235.5C 185.488,240.64 185.821,245.974 185.5,251.5C 179.833,251.5 174.167,251.5 168.5,251.5C 169.678,276.361 176.678,299.361 189.5,320.5C 190.045,322.593 190.878,324.593 192,326.5C 207.803,350.479 228.636,368.479 254.5,380.5C 278.651,392.599 304.318,397.433 331.5,395C 343.905,394.121 355.905,391.621 367.5,387.5C 372.916,385.695 378.249,383.695 383.5,381.5C 388.909,378.489 394.243,375.489 399.5,372.5C 405.587,369.461 410.921,365.461 415.5,360.5C 430.121,349.885 441.455,336.552 449.5,320.5C 459.698,303.325 466.365,284.992 469.5,265.5C 468.085,263.72 468.252,262.054 470,260.5C 470.498,257.518 470.665,254.518 470.5,251.5C 464.833,251.5 459.167,251.5 453.5,251.5C 453.5,247.5 453.5,243.5 453.5,239.5C 453.232,237.901 453.566,236.568 454.5,235.5C 464.938,235.049 475.271,235.549 485.5,237C 486.126,237.75 486.626,238.584 487,239.5C 488.404,282.465 475.237,320.131 447.5,352.5C 438.055,363.617 427.388,373.283 415.5,381.5C 410.797,384.514 406.13,387.514 401.5,390.5C 395.182,392.992 389.182,395.992 383.5,399.5C 378.03,400.768 372.696,402.435 367.5,404.5C 333.256,414.49 299.256,413.823 265.5,402.5C 236.222,392.538 211.555,375.871 191.5,352.5C 190.651,348.449 189.485,344.449 188,340.5C 187.303,338.416 186.136,336.749 184.5,335.5C 179.872,327.872 173.872,321.539 166.5,316.5C 166.938,316.565 167.272,316.399 167.5,316C 160.385,301.637 155.718,286.803 153.5,271.5C 155.068,259.326 157.402,247.326 160.5,235.5 Z M 185.5,251.5 C 186.365,274.542 187.699,297.542 189.5,320.5C 176.678,299.361 169.678,276.361 168.5,251.5C 174.167,251.5 179.833,251.5 185.5,251.5 Z M 453.5,251.5 C 459.167,251.5 464.833,251.5 470.5,251.5C 470.665,254.518 470.498,257.518 470,260.5C 468.252,262.054 468.085,263.72 469.5,265.5C 466.365,284.992 459.698,303.325 449.5,320.5C 451.301,297.542 452.635,274.542 453.5,251.5 Z"/></g>
<g><path style="opacity:1" fill="#939899" d="M 351.5,239.5 C 358.987,239.81 364.154,243.477 367,250.5C 367.5,296.165 367.667,341.832 367.5,387.5C 355.905,391.621 343.905,394.121 331.5,395C 304.318,397.433 278.651,392.599 254.5,380.5C 252.914,374.235 251.58,367.902 250.5,361.5C 250.956,357.944 251.956,354.61 253.5,351.5C 260.743,348.592 266.077,343.592 269.5,336.5C 270.29,335.391 270.79,334.058 271,332.5C 271.5,309.502 271.667,286.502 271.5,263.5C 278.987,263.81 284.154,267.477 287,274.5C 287.333,285.5 287.667,296.5 288,307.5C 292.831,323.332 303.331,329.498 319.5,326C 326.42,323.249 331.086,318.415 333.5,311.5C 344.415,307.244 350.415,299.244 351.5,287.5C 351.5,271.5 351.5,255.5 351.5,239.5 Z"/></g>
<g><path style="opacity:0.994" fill="#93999a" d="M 415.5,239.5 C 428.167,239.5 440.833,239.5 453.5,239.5C 453.5,243.5 453.5,247.5 453.5,251.5C 452.635,274.542 451.301,297.542 449.5,320.5C 441.455,336.552 430.121,349.885 415.5,360.5C 415.5,320.167 415.5,279.833 415.5,239.5 Z"/></g>
<g><path style="opacity:1" fill="#656b76" d="M 291.5,248.5 C 297.853,250.02 301.686,254.02 303,260.5C 303.333,271.167 303.667,281.833 304,292.5C 308.876,306.522 318.709,312.855 333.5,311.5C 331.086,318.415 326.42,323.249 319.5,326C 303.331,329.498 292.831,323.332 288,307.5C 287.667,296.5 287.333,285.5 287,274.5C 284.154,267.477 278.987,263.81 271.5,263.5C 273.119,251.696 279.786,246.696 291.5,248.5 Z"/></g>
<g><path style="opacity:1" fill="#f7664f" d="M 291.5,248.5 C 296.65,247.349 301.984,247.183 307.5,248C 322.052,251.893 328.886,261.393 328,276.5C 332.884,286.19 340.717,289.856 351.5,287.5C 350.415,299.244 344.415,307.244 333.5,311.5C 318.709,312.855 308.876,306.522 304,292.5C 303.667,281.833 303.333,271.167 303,260.5C 301.686,254.02 297.853,250.02 291.5,248.5 Z"/></g>
<g><path style="opacity:0.995" fill="#939899" d="M 447.5,352.5 C 446.116,386.356 444.116,420.022 441.5,453.5C 441.5,451.5 441.5,449.5 441.5,447.5C 405.498,447.667 369.498,447.5 333.5,447C 303.863,442.377 281.197,427.543 265.5,402.5C 299.256,413.823 333.256,414.49 367.5,404.5C 367.334,411.841 367.5,419.174 368,426.5C 371.881,437.358 379.381,441.191 390.5,438C 396.424,434.985 399.424,430.152 399.5,423.5C 412.748,421.048 418.081,413.048 415.5,399.5C 415.5,393.5 415.5,387.5 415.5,381.5C 427.388,373.283 438.055,363.617 447.5,352.5 Z"/></g>
<g><path style="opacity:1" fill="#656b76" d="M 191.5,352.5 C 211.555,375.871 236.222,392.538 265.5,402.5C 281.197,427.543 303.863,442.377 333.5,447C 369.498,447.5 405.498,447.667 441.5,447.5C 441.5,449.5 441.5,451.5 441.5,453.5C 441.167,464.833 440.833,476.167 440.5,487.5C 365.5,487.5 290.5,487.5 215.5,487.5C 213.808,479.4 211.808,471.4 209.5,463.5C 205.142,444.733 200.475,426.067 195.5,407.5C 194.514,403.557 193.848,399.557 193.5,395.5C 193.217,386.321 192.551,377.321 191.5,368.5C 191.5,365.5 191.5,362.5 191.5,359.5C 191.5,357.167 191.5,354.833 191.5,352.5 Z"/></g>
<g><path style="opacity:1" fill="#57b7eb" d="M 47.5,359.5 C 55.5,359.5 63.5,359.5 71.5,359.5C 71.7791,366.963 75.4457,372.13 82.5,375C 118.832,375.5 155.165,375.667 191.5,375.5C 191.5,380.833 191.5,386.167 191.5,391.5C 143.5,391.5 95.5,391.5 47.5,391.5C 47.5,380.833 47.5,370.167 47.5,359.5 Z"/></g>
<g><path style="opacity:1" fill="#83d1f3" d="M 71.5,359.5 C 111.5,359.5 151.5,359.5 191.5,359.5C 191.5,362.5 191.5,365.5 191.5,368.5C 191.5,370.833 191.5,373.167 191.5,375.5C 155.165,375.667 118.832,375.5 82.5,375C 75.4457,372.13 71.7791,366.963 71.5,359.5 Z"/></g>
<g><path style="opacity:1" fill="#f79b8d" d="M 415.5,381.5 C 415.5,387.5 415.5,393.5 415.5,399.5C 408.86,399.516 404.193,396.516 401.5,390.5C 406.13,387.514 410.797,384.514 415.5,381.5 Z"/></g>
<g><path style="opacity:1" fill="#f7664f" d="M 47.5,391.5 C 95.5,391.5 143.5,391.5 191.5,391.5C 192.167,392.833 192.833,394.167 193.5,395.5C 193.848,399.557 194.514,403.557 195.5,407.5C 167.498,407.333 139.498,407.5 111.5,408C 94.3699,416.066 91.0366,428.066 101.5,444C 114.728,454.445 129.728,460.778 146.5,463C 167.497,463.5 188.497,463.667 209.5,463.5C 211.808,471.4 213.808,479.4 215.5,487.5C 169.832,487.667 124.165,487.5 78.5,487C 73.857,479.534 68.857,472.367 63.5,465.5C 58.143,472.367 53.143,479.534 48.5,487C 40.1733,487.5 31.84,487.666 23.5,487.5C 30.8983,455.24 38.8983,423.24 47.5,391.5 Z"/></g>
<g><path style="opacity:1" fill="#f76750" d="M 401.5,390.5 C 404.193,396.516 408.86,399.516 415.5,399.5C 418.081,413.048 412.748,421.048 399.5,423.5C 392.869,423.433 388.036,420.433 385,414.5C 383.75,409.58 383.25,404.58 383.5,399.5C 389.182,395.992 395.182,392.992 401.5,390.5 Z"/></g>
<g><path style="opacity:1" fill="#666b76" d="M 383.5,399.5 C 383.25,404.58 383.75,409.58 385,414.5C 388.036,420.433 392.869,423.433 399.5,423.5C 399.424,430.152 396.424,434.985 390.5,438C 379.381,441.191 371.881,437.358 368,426.5C 367.5,419.174 367.334,411.841 367.5,404.5C 372.696,402.435 378.03,400.768 383.5,399.5 Z"/></g>
<g><path style="opacity:1" fill="#f79b8c" d="M 195.5,407.5 C 200.475,426.067 205.142,444.733 209.5,463.5C 188.497,463.667 167.497,463.5 146.5,463C 129.728,460.778 114.728,454.445 101.5,444C 91.0366,428.066 94.3699,416.066 111.5,408C 139.498,407.5 167.498,407.333 195.5,407.5 Z"/></g>
</svg>
