<?xml version="1.0" encoding="UTF-8"?>
<!DOCTYPE svg PUBLIC "-//W3C//DTD SVG 1.1//EN" "http://www.w3.org/Graphics/SVG/1.1/DTD/svg11.dtd">
<svg xmlns="http://www.w3.org/2000/svg" version="1.1" width="512px" height="512px" style="shape-rendering:geometricPrecision; text-rendering:geometricPrecision; image-rendering:optimizeQuality; fill-rule:evenodd; clip-rule:evenodd" xmlns:xlink="http://www.w3.org/1999/xlink">
<g><path style="opacity:1" fill="#f8664f" d="M 208.5,31.5 C 212.04,43.8736 220.04,51.7069 232.5,55C 264.165,55.5 295.832,55.6666 327.5,55.5C 327.5,60.8333 327.5,66.1667 327.5,71.5C 327.5,74.1667 327.5,76.8333 327.5,79.5C 279.5,79.5 231.5,79.5 183.5,79.5C 183.5,76.8333 183.5,74.1667 183.5,71.5C 183.5,60.8333 183.5,50.1667 183.5,39.5C 183.5,36.8333 183.5,34.1667 183.5,31.5C 191.833,31.5 200.167,31.5 208.5,31.5 Z"/></g>
<g><path style="opacity:1" fill="#f89b8c" d="M 208.5,31.5 C 248.167,31.5 287.833,31.5 327.5,31.5C 327.5,34.1667 327.5,36.8333 327.5,39.5C 327.5,44.8333 327.5,50.1667 327.5,55.5C 295.832,55.6666 264.165,55.5 232.5,55C 220.04,51.7069 212.04,43.8736 208.5,31.5 Z"/></g>
<g><path style="opacity:0.991" fill="#cfd7d9" d="M 166.5,39.5 C 165.864,43.7814 164.364,47.7814 162,51.5C 155.649,57.1861 149.983,63.5194 145,70.5C 144.44,79.9714 142.106,88.9714 138,97.5C 135.129,101.335 131.629,104.335 127.5,106.5C 127.333,89.83 127.5,73.1633 128,56.5C 130.833,48.3333 136.333,42.8333 144.5,40C 151.826,39.5003 159.159,39.3337 166.5,39.5 Z"/></g>
<g><path style="opacity:1" fill="#93999a" d="M 166.5,39.5 C 172.167,39.5 177.833,39.5 183.5,39.5C 183.5,50.1667 183.5,60.8333 183.5,71.5C 175.5,71.5 167.5,71.5 159.5,71.5C 159.5,92.8333 159.5,114.167 159.5,135.5C 148.833,135.5 138.167,135.5 127.5,135.5C 127.5,125.833 127.5,116.167 127.5,106.5C 131.629,104.335 135.129,101.335 138,97.5C 142.106,88.9714 144.44,79.9714 145,70.5C 149.983,63.5194 155.649,57.1861 162,51.5C 164.364,47.7814 165.864,43.7814 166.5,39.5 Z"/></g>
<g><path style="opacity:1" fill="#93999a" d="M 327.5,39.5 C 333.167,39.5 338.833,39.5 344.5,39.5C 345.136,43.7814 346.636,47.7814 349,51.5C 353.613,56.1126 358.279,60.7792 363,65.5C 364,67.1667 365,68.8333 366,70.5C 366.048,82.2102 369.548,92.7102 376.5,102C 378.734,103.75 381.068,105.25 383.5,106.5C 383.5,116.167 383.5,125.833 383.5,135.5C 372.833,135.5 362.167,135.5 351.5,135.5C 351.5,114.167 351.5,92.8333 351.5,71.5C 343.5,71.5 335.5,71.5 327.5,71.5C 327.5,66.1667 327.5,60.8333 327.5,55.5C 327.5,50.1667 327.5,44.8333 327.5,39.5 Z"/></g>
<g><path style="opacity:0.991" fill="#cfd7d9" d="M 344.5,39.5 C 351.841,39.3337 359.174,39.5003 366.5,40C 374.667,42.8333 380.167,48.3333 383,56.5C 383.5,73.1633 383.667,89.83 383.5,106.5C 381.068,105.25 378.734,103.75 376.5,102C 369.548,92.7102 366.048,82.2102 366,70.5C 365,68.8333 364,67.1667 363,65.5C 358.279,60.7792 353.613,56.1126 349,51.5C 346.636,47.7814 345.136,43.7814 344.5,39.5 Z"/></g>
<g><path style="opacity:1" fill="#f8664f" d="M 92.5,135.5 C 86.1031,151.43 89.1031,165.264 101.5,177C 105.682,180.09 110.349,182.09 115.5,183C 239.5,183.5 363.5,183.667 487.5,183.5C 487.5,204.833 487.5,226.167 487.5,247.5C 468.833,247.5 450.167,247.5 431.5,247.5C 431.5,236.833 431.5,226.167 431.5,215.5C 420.833,215.5 410.167,215.5 399.5,215.5C 394.167,215.5 388.833,215.5 383.5,215.5C 383.5,226.167 383.5,236.833 383.5,247.5C 364.833,247.5 346.167,247.5 327.5,247.5C 327.5,231.5 327.5,215.5 327.5,199.5C 287.5,199.5 247.5,199.5 207.5,199.5C 199.5,199.5 191.5,199.5 183.5,199.5C 183.5,215.5 183.5,231.5 183.5,247.5C 162.167,247.5 140.833,247.5 119.5,247.5C 119.5,236.833 119.5,226.167 119.5,215.5C 108.833,215.5 98.1667,215.5 87.5,215.5C 82.1667,215.5 76.8333,215.5 71.5,215.5C 71.5,226.167 71.5,236.833 71.5,247.5C 55.5,247.5 39.5,247.5 23.5,247.5C 23.3334,225.497 23.5,203.497 24,181.5C 36.9521,166.426 49.7854,151.259 62.5,136C 72.4944,135.5 82.4944,135.334 92.5,135.5 Z"/></g>
<g><path style="opacity:0.999" fill="#f89b8c" d="M 92.5,135.5 C 104.167,135.5 115.833,135.5 127.5,135.5C 138.167,135.5 148.833,135.5 159.5,135.5C 223.5,135.5 287.5,135.5 351.5,135.5C 362.167,135.5 372.833,135.5 383.5,135.5C 405.169,135.333 426.836,135.5 448.5,136C 461.735,151.726 474.735,167.56 487.5,183.5C 363.5,183.667 239.5,183.5 115.5,183C 110.349,182.09 105.682,180.09 101.5,177C 89.1031,165.264 86.1031,151.43 92.5,135.5 Z"/></g>
<g><path style="opacity:1" fill="#fbbc04" d="M 207.5,199.5 C 207.161,208.226 207.661,216.893 209,225.5C 210.138,230.443 212.305,234.776 215.5,238.5C 215.877,244.21 218.877,247.21 224.5,247.5C 228.854,251.025 233.854,253.525 239.5,255C 268.831,255.5 298.165,255.667 327.5,255.5C 327.5,263.5 327.5,271.5 327.5,279.5C 279.5,279.5 231.5,279.5 183.5,279.5C 183.5,268.833 183.5,258.167 183.5,247.5C 183.5,231.5 183.5,215.5 183.5,199.5C 191.5,199.5 199.5,199.5 207.5,199.5 Z"/></g>
<g><path style="opacity:1" fill="#f8e009" d="M 207.5,199.5 C 247.5,199.5 287.5,199.5 327.5,199.5C 327.5,215.5 327.5,231.5 327.5,247.5C 327.5,250.167 327.5,252.833 327.5,255.5C 298.165,255.667 268.831,255.5 239.5,255C 233.854,253.525 228.854,251.025 224.5,247.5C 246.169,247.667 267.836,247.5 289.5,247C 293.624,246.018 295.624,243.352 295.5,239C 295.277,235.112 293.277,232.779 289.5,232C 266.5,231.333 243.5,231.333 220.5,232C 217.507,233.159 215.84,235.325 215.5,238.5C 212.305,234.776 210.138,230.443 209,225.5C 207.661,216.893 207.161,208.226 207.5,199.5 Z"/></g>
<g><path style="opacity:1" fill="#fbbc04" d="M 87.5,215.5 C 87.3335,225.506 87.5002,235.506 88,245.5C 93.721,259.698 104.221,265.698 119.5,263.5C 119.5,268.833 119.5,274.167 119.5,279.5C 103.5,279.5 87.5,279.5 71.5,279.5C 71.5,268.833 71.5,258.167 71.5,247.5C 71.5,236.833 71.5,226.167 71.5,215.5C 76.8333,215.5 82.1667,215.5 87.5,215.5 Z"/></g>
<g><path style="opacity:1" fill="#f9e008" d="M 87.5,215.5 C 98.1667,215.5 108.833,215.5 119.5,215.5C 119.5,226.167 119.5,236.833 119.5,247.5C 119.5,252.833 119.5,258.167 119.5,263.5C 104.221,265.698 93.721,259.698 88,245.5C 87.5002,235.506 87.3335,225.506 87.5,215.5 Z"/></g>
<g><path style="opacity:1" fill="#fbbc04" d="M 399.5,215.5 C 399.334,225.506 399.5,235.506 400,245.5C 405.721,259.698 416.221,265.698 431.5,263.5C 431.5,268.833 431.5,274.167 431.5,279.5C 415.5,279.5 399.5,279.5 383.5,279.5C 383.5,268.833 383.5,258.167 383.5,247.5C 383.5,236.833 383.5,226.167 383.5,215.5C 388.833,215.5 394.167,215.5 399.5,215.5 Z"/></g>
<g><path style="opacity:1" fill="#f9e008" d="M 399.5,215.5 C 410.167,215.5 420.833,215.5 431.5,215.5C 431.5,226.167 431.5,236.833 431.5,247.5C 431.5,252.833 431.5,258.167 431.5,263.5C 416.221,265.698 405.721,259.698 400,245.5C 399.5,235.506 399.334,225.506 399.5,215.5 Z"/></g>
<g><path style="opacity:1" fill="#e5972f" d="M 224.5,247.5 C 218.877,247.21 215.877,244.21 215.5,238.5C 215.84,235.325 217.507,233.159 220.5,232C 243.5,231.333 266.5,231.333 289.5,232C 293.277,232.779 295.277,235.112 295.5,239C 295.624,243.352 293.624,246.018 289.5,247C 267.836,247.5 246.169,247.667 224.5,247.5 Z"/></g>
<g><path style="opacity:1" fill="#cc5143" d="M 23.5,247.5 C 39.5,247.5 55.5,247.5 71.5,247.5C 71.5,258.167 71.5,268.833 71.5,279.5C 87.5,279.5 103.5,279.5 119.5,279.5C 119.5,274.167 119.5,268.833 119.5,263.5C 119.5,258.167 119.5,252.833 119.5,247.5C 140.833,247.5 162.167,247.5 183.5,247.5C 183.5,258.167 183.5,268.833 183.5,279.5C 231.5,279.5 279.5,279.5 327.5,279.5C 327.5,271.5 327.5,263.5 327.5,255.5C 327.5,252.833 327.5,250.167 327.5,247.5C 346.167,247.5 364.833,247.5 383.5,247.5C 383.5,258.167 383.5,268.833 383.5,279.5C 399.5,279.5 415.5,279.5 431.5,279.5C 431.5,274.167 431.5,268.833 431.5,263.5C 431.5,258.167 431.5,252.833 431.5,247.5C 450.167,247.5 468.833,247.5 487.5,247.5C 487.5,260.833 487.5,274.167 487.5,287.5C 460.833,287.5 434.167,287.5 407.5,287.5C 407.5,292.833 407.5,298.167 407.5,303.5C 391.5,303.5 375.5,303.5 359.5,303.5C 359.5,298.167 359.5,292.833 359.5,287.5C 340.833,287.5 322.167,287.5 303.5,287.5C 303.5,292.833 303.5,298.167 303.5,303.5C 255.5,303.5 207.5,303.5 159.5,303.5C 159.5,298.167 159.5,292.833 159.5,287.5C 138.167,287.5 116.833,287.5 95.5,287.5C 95.5,292.833 95.5,298.167 95.5,303.5C 92.8333,303.5 90.1667,303.5 87.5,303.5C 86.4993,329.166 92.8326,352.833 106.5,374.5C 95.673,375.154 93.0064,380.154 98.5,389.5C 94.8487,390.659 91.5154,392.326 88.5,394.5C 81.9375,398.39 76.2708,403.39 71.5,409.5C 66.0353,414.464 60.702,419.63 55.5,425C 63,432.5 70.5,440 78,447.5C 87.6667,437.833 97.3333,428.167 107,418.5C 109.452,413.932 111.618,409.265 113.5,404.5C 118.003,408.445 122.503,408.445 127,404.5C 128.128,402.655 128.628,400.655 128.5,398.5C 142.215,409.856 157.881,417.189 175.5,420.5C 175.5,421.5 175.5,422.5 175.5,423.5C 172.833,423.5 170.167,423.5 167.5,423.5C 153.055,426.388 148.555,434.721 154,448.5C 156.264,451.433 159.098,453.6 162.5,455C 224.5,455.667 286.5,455.667 348.5,455C 355.523,452.154 359.19,446.987 359.5,439.5C 359.279,431.949 355.612,426.949 348.5,424.5C 372.328,423.502 396.328,423.169 420.5,423.5C 422.782,427.893 425.448,432.059 428.5,436C 439.995,442.61 448.828,440.11 455,428.5C 455.494,426.866 455.66,425.199 455.5,423.5C 466.167,423.5 476.833,423.5 487.5,423.5C 487.5,444.833 487.5,466.167 487.5,487.5C 332.833,487.5 178.167,487.5 23.5,487.5C 23.5,407.5 23.5,327.5 23.5,247.5 Z"/></g>
<g><path style="opacity:1" fill="#f7664e" d="M 487.5,287.5 C 487.5,332.833 487.5,378.167 487.5,423.5C 476.833,423.5 466.167,423.5 455.5,423.5C 455.784,421.585 455.451,419.919 454.5,418.5C 447.099,404.699 439.432,391.032 431.5,377.5C 428.404,371.633 425.071,365.967 421.5,360.5C 428.437,356.359 435.437,352.193 442.5,348C 440.03,344.222 437.697,340.389 435.5,336.5C 433.719,333.777 432.052,330.943 430.5,328C 419.157,327.667 407.824,328 396.5,329C 384.48,335.006 372.814,341.506 361.5,348.5C 358.311,349.593 355.644,351.426 353.5,354C 359.613,365.727 366.113,377.227 373,388.5C 379.721,384.273 386.554,380.273 393.5,376.5C 402.753,392.004 411.753,407.67 420.5,423.5C 396.328,423.169 372.328,423.502 348.5,424.5C 344.232,423.627 339.898,423.294 335.5,423.5C 335.827,413.985 335.494,404.652 334.5,395.5C 331.743,377.315 323.743,361.982 310.5,349.5C 311.468,346.555 311.634,343.555 311,340.5C 310.623,339.058 309.79,338.058 308.5,337.5C 308.389,336.883 308.056,336.383 307.5,336C 303.291,334.811 299.624,335.644 296.5,338.5C 290.463,335.046 284.13,332.379 277.5,330.5C 278.55,325.886 278.717,321.22 278,316.5C 277.535,315.069 276.701,313.903 275.5,313C 264.244,311.567 252.91,311.067 241.5,311.5C 237.727,310.822 234.894,312.156 233,315.5C 232.501,319.821 232.334,324.154 232.5,328.5C 232.586,329.496 232.252,330.329 231.5,331C 227.771,331.844 224.437,333.344 221.5,335.5C 218.833,336.5 216.167,337.5 213.5,338.5C 213.5,337.833 213.167,337.5 212.5,337.5C 207.887,334.434 203.72,335.101 200,339.5C 199.341,342.888 199.508,346.221 200.5,349.5C 180.889,368.991 172.555,392.658 175.5,420.5C 157.881,417.189 142.215,409.856 128.5,398.5C 127.651,395.319 125.985,392.652 123.5,390.5C 131.465,383.036 139.298,375.369 147,367.5C 149.833,357 146,353.167 135.5,356C 127.631,363.702 119.964,371.535 112.5,379.5C 110.475,377.804 108.475,376.137 106.5,374.5C 92.8326,352.833 86.4993,329.166 87.5,303.5C 90.1667,303.5 92.8333,303.5 95.5,303.5C 95.5,298.167 95.5,292.833 95.5,287.5C 116.833,287.5 138.167,287.5 159.5,287.5C 159.5,292.833 159.5,298.167 159.5,303.5C 207.5,303.5 255.5,303.5 303.5,303.5C 303.5,298.167 303.5,292.833 303.5,287.5C 322.167,287.5 340.833,287.5 359.5,287.5C 359.5,292.833 359.5,298.167 359.5,303.5C 375.5,303.5 391.5,303.5 407.5,303.5C 407.5,298.167 407.5,292.833 407.5,287.5C 434.167,287.5 460.833,287.5 487.5,287.5 Z"/></g>
<g><path style="opacity:1" fill="#fbbb04" d="M 241.5,311.5 C 241.636,329.541 244.136,347.207 249,364.5C 253.744,375.58 261.077,384.58 271,391.5C 273.538,371.245 275.705,350.912 277.5,330.5C 284.13,332.379 290.463,335.046 296.5,338.5C 299.624,335.644 303.291,334.811 307.5,336C 308.056,336.383 308.389,336.883 308.5,337.5C 305.112,337.874 303.278,339.874 303,343.5C 299.536,355.008 297.203,366.675 296,378.5C 297.211,382.462 299.211,383.129 302,380.5C 304.681,370.109 307.514,359.776 310.5,349.5C 323.743,361.982 331.743,377.315 334.5,395.5C 334.5,396.833 334.5,398.167 334.5,399.5C 301.451,399.972 268.451,399.472 235.5,398C 227.749,394.92 221.082,390.254 215.5,384C 212.966,383.484 210.8,382.317 209,380.5C 205.698,370.292 202.865,359.958 200.5,349.5C 199.508,346.221 199.341,342.888 200,339.5C 203.72,335.101 207.887,334.434 212.5,337.5C 208.842,337.935 207.175,340.101 207.5,344C 210.587,356.182 213.754,368.349 217,380.5C 221.68,382.104 223.847,380.271 223.5,375C 221.16,362.467 217.827,350.3 213.5,338.5C 216.167,337.5 218.833,336.5 221.5,335.5C 227.089,352.435 232.589,369.435 238,386.5C 236.749,366.996 234.916,347.663 232.5,328.5C 232.334,324.154 232.501,319.821 233,315.5C 234.894,312.156 237.727,310.822 241.5,311.5 Z"/></g>
<g><path style="opacity:1" fill="#f9e009" d="M 241.5,311.5 C 252.91,311.067 264.244,311.567 275.5,313C 276.701,313.903 277.535,315.069 278,316.5C 278.717,321.22 278.55,325.886 277.5,330.5C 275.705,350.912 273.538,371.245 271,391.5C 261.077,384.58 253.744,375.58 249,364.5C 244.136,347.207 241.636,329.541 241.5,311.5 Z"/></g>
<g><path style="opacity:1" fill="#949798" d="M 435.5,336.5 C 424.741,342.076 414.074,347.909 403.5,354C 388.438,359.959 374.438,358.125 361.5,348.5C 372.814,341.506 384.48,335.006 396.5,329C 407.824,328 419.157,327.667 430.5,328C 432.052,330.943 433.719,333.777 435.5,336.5 Z"/></g>
<g><path style="opacity:1" fill="#e5972f" d="M 232.5,328.5 C 234.916,347.663 236.749,366.996 238,386.5C 232.589,369.435 227.089,352.435 221.5,335.5C 224.437,333.344 227.771,331.844 231.5,331C 232.252,330.329 232.586,329.496 232.5,328.5 Z"/></g>
<g><path style="opacity:1" fill="#666b76" d="M 435.5,336.5 C 437.697,340.389 440.03,344.222 442.5,348C 435.437,352.193 428.437,356.359 421.5,360.5C 411.904,365.441 402.571,370.775 393.5,376.5C 386.554,380.273 379.721,384.273 373,388.5C 366.113,377.227 359.613,365.727 353.5,354C 355.644,351.426 358.311,349.593 361.5,348.5C 374.438,358.125 388.438,359.959 403.5,354C 414.074,347.909 424.741,342.076 435.5,336.5 Z"/></g>
<g><path style="opacity:1" fill="#f9df08" d="M 212.5,337.5 C 213.167,337.5 213.5,337.833 213.5,338.5C 217.827,350.3 221.16,362.467 223.5,375C 223.847,380.271 221.68,382.104 217,380.5C 213.754,368.349 210.587,356.182 207.5,344C 207.175,340.101 208.842,337.935 212.5,337.5 Z"/></g>
<g><path style="opacity:1" fill="#f9de09" d="M 308.5,337.5 C 309.79,338.058 310.623,339.058 311,340.5C 311.634,343.555 311.468,346.555 310.5,349.5C 307.514,359.776 304.681,370.109 302,380.5C 299.211,383.129 297.211,382.462 296,378.5C 297.203,366.675 299.536,355.008 303,343.5C 303.278,339.874 305.112,337.874 308.5,337.5 Z"/></g>
<g><path style="opacity:1" fill="#e5972f" d="M 200.5,349.5 C 202.865,359.958 205.698,370.292 209,380.5C 210.8,382.317 212.966,383.484 215.5,384C 221.082,390.254 227.749,394.92 235.5,398C 268.451,399.472 301.451,399.972 334.5,399.5C 334.5,398.167 334.5,396.833 334.5,395.5C 335.494,404.652 335.827,413.985 335.5,423.5C 282.167,423.5 228.833,423.5 175.5,423.5C 175.5,422.5 175.5,421.5 175.5,420.5C 172.555,392.658 180.889,368.991 200.5,349.5 Z"/></g>
<g><path style="opacity:1" fill="#d1d5d6" d="M 123.5,390.5 C 119.5,387.167 115.833,383.5 112.5,379.5C 119.964,371.535 127.631,363.702 135.5,356C 146,353.167 149.833,357 147,367.5C 139.298,375.369 131.465,383.036 123.5,390.5 Z"/></g>
<g><path style="opacity:1" fill="#fbbb05" d="M 421.5,360.5 C 425.071,365.967 428.404,371.633 431.5,377.5C 426.222,381.108 423.888,386.275 424.5,393C 425.39,404.778 431.057,413.445 441.5,419C 446.2,421.04 450.533,420.873 454.5,418.5C 455.451,419.919 455.784,421.585 455.5,423.5C 443.833,423.5 432.167,423.5 420.5,423.5C 411.753,407.67 402.753,392.004 393.5,376.5C 402.571,370.775 411.904,365.441 421.5,360.5 Z"/></g>
<g><path style="opacity:1" fill="#fab907" d="M 106.5,374.5 C 108.475,376.137 110.475,377.804 112.5,379.5C 115.833,383.5 119.5,387.167 123.5,390.5C 125.985,392.652 127.651,395.319 128.5,398.5C 128.628,400.655 128.128,402.655 127,404.5C 122.503,408.445 118.003,408.445 113.5,404.5C 108.833,399.167 103.833,394.167 98.5,389.5C 93.0064,380.154 95.673,375.154 106.5,374.5 Z"/></g>
<g><path style="opacity:1" fill="#f9df09" d="M 431.5,377.5 C 439.432,391.032 447.099,404.699 454.5,418.5C 450.533,420.873 446.2,421.04 441.5,419C 431.057,413.445 425.39,404.778 424.5,393C 423.888,386.275 426.222,381.108 431.5,377.5 Z"/></g>
<g><path style="opacity:1" fill="#fbba05" d="M 88.5,394.5 C 94.4365,400.938 100.603,407.271 107,413.5C 107.688,414.332 107.521,414.998 106.5,415.5C 93.5847,420.687 81.918,418.687 71.5,409.5C 76.2708,403.39 81.9375,398.39 88.5,394.5 Z"/></g>
<g><path style="opacity:1" fill="#e5972f" d="M 98.5,389.5 C 103.833,394.167 108.833,399.167 113.5,404.5C 111.618,409.265 109.452,413.932 107,418.5C 97.3333,428.167 87.6667,437.833 78,447.5C 70.5,440 63,432.5 55.5,425C 60.702,419.63 66.0353,414.464 71.5,409.5C 81.918,418.687 93.5847,420.687 106.5,415.5C 107.521,414.998 107.688,414.332 107,413.5C 100.603,407.271 94.4365,400.938 88.5,394.5C 91.5154,392.326 94.8487,390.659 98.5,389.5 Z"/></g>
<g><path style="opacity:1" fill="#fbbb04" d="M 167.5,423.5 C 167.835,431.006 171.501,436.172 178.5,439C 238.832,439.5 299.166,439.667 359.5,439.5C 359.19,446.987 355.523,452.154 348.5,455C 286.5,455.667 224.5,455.667 162.5,455C 159.098,453.6 156.264,451.433 154,448.5C 148.555,434.721 153.055,426.388 167.5,423.5 Z"/></g>
<g><path style="opacity:1" fill="#f8e009" d="M 167.5,423.5 C 170.167,423.5 172.833,423.5 175.5,423.5C 228.833,423.5 282.167,423.5 335.5,423.5C 339.898,423.294 344.232,423.627 348.5,424.5C 355.612,426.949 359.279,431.949 359.5,439.5C 299.166,439.667 238.832,439.5 178.5,439C 171.501,436.172 167.835,431.006 167.5,423.5 Z"/></g>
<g><path style="opacity:1" fill="#e5972f" d="M 420.5,423.5 C 432.167,423.5 443.833,423.5 455.5,423.5C 455.66,425.199 455.494,426.866 455,428.5C 448.828,440.11 439.995,442.61 428.5,436C 425.448,432.059 422.782,427.893 420.5,423.5 Z"/></g>
</svg>
