<?xml version="1.0" encoding="UTF-8"?>
<!DOCTYPE svg PUBLIC "-//W3C//DTD SVG 1.1//EN" "http://www.w3.org/Graphics/SVG/1.1/DTD/svg11.dtd">
<svg xmlns="http://www.w3.org/2000/svg" version="1.1" width="512px" height="512px" style="shape-rendering:geometricPrecision; text-rendering:geometricPrecision; image-rendering:optimizeQuality; fill-rule:evenodd; clip-rule:evenodd" xmlns:xlink="http://www.w3.org/1999/xlink">
<g><path style="opacity:1" fill="#4fabf6" d="M 276.5,-0.5 C 308.167,-0.5 339.833,-0.5 371.5,-0.5C 358.46,6.12397 355.627,15.7906 363,28.5C 365.671,30.9024 368.505,32.9024 371.5,34.5C 339.427,34.8255 307.427,34.4922 275.5,33.5C 270.389,30.7262 266.722,26.7262 264.5,21.5C 263.363,11.0906 267.363,3.75728 276.5,-0.5 Z"/></g>
<g><path style="opacity:1" fill="#72c2f8" d="M 371.5,-0.5 C 405.5,-0.5 439.5,-0.5 473.5,-0.5C 485.105,6.14934 487.938,15.4827 482,27.5C 479.914,30.0939 477.414,32.0939 474.5,33.5C 440.21,34.4864 405.877,34.8197 371.5,34.5C 368.505,32.9024 365.671,30.9024 363,28.5C 355.627,15.7906 358.46,6.12397 371.5,-0.5 Z"/></g>
<g><path style="opacity:0.995" fill="#1d2e7a" d="M 264.5,21.5 C 266.722,26.7262 270.389,30.7262 275.5,33.5C 279.907,74.4939 284.24,115.494 288.5,156.5C 283.833,156.5 279.167,156.5 274.5,156.5C 258.497,156.333 242.497,156.5 226.5,157C 222.942,158.892 220.442,161.725 219,165.5C 218.5,189.498 218.333,213.498 218.5,237.5C 211.5,237.5 204.5,237.5 197.5,237.5C 197.167,237.5 196.833,237.5 196.5,237.5C 196.667,213.498 196.5,189.498 196,165.5C 195.626,164.584 195.126,163.75 194.5,163C 192.389,162.155 190.389,161.322 188.5,160.5C 193.495,144.509 200.662,129.509 210,115.5C 211.041,110.56 210.374,105.894 208,101.5C 200.9,93.7023 192.4,88.0356 182.5,84.5C 159.618,78.0169 139.618,83.0169 122.5,99.5C 120.902,101.698 119.569,104.031 118.5,106.5C 116.199,101.679 112.866,97.5119 108.5,94C 103.062,90.2845 97.3953,87.1178 91.5,84.5C 140.431,40.4035 198.098,19.4035 264.5,21.5 Z"/></g>
<g><path style="opacity:1" fill="#2e8be5" d="M 275.5,33.5 C 307.427,34.4922 339.427,34.8255 371.5,34.5C 405.877,34.8197 440.21,34.4864 474.5,33.5C 473.096,48.8789 471.429,64.2122 469.5,79.5C 443.352,81.0391 417.018,82.2058 390.5,83C 379.823,86.3437 372.323,93.177 368,103.5C 366.865,114.932 366.365,126.432 366.5,138C 367.142,175.171 367.975,212.337 369,249.5C 370.455,262.42 375.621,273.42 384.5,282.5C 384.5,324.833 384.5,367.167 384.5,409.5C 381.167,409.5 377.833,409.5 374.5,409.5C 374.666,399.161 374.5,388.828 374,378.5C 372.89,376.963 371.39,376.297 369.5,376.5C 369.831,346.329 369.498,316.329 368.5,286.5C 367.797,284.284 366.464,282.451 364.5,281C 358.206,279.949 352.206,280.783 346.5,283.5C 346.667,243.832 346.5,204.165 346,164.5C 344.01,160.51 340.843,158.01 336.5,157C 320.503,156.5 304.503,156.333 288.5,156.5C 284.24,115.494 279.907,74.4939 275.5,33.5 Z"/></g>
<g><path style="opacity:1" fill="#fedc42" d="M 90.5,84.5 C 87.3894,86.5591 84.0561,88.3924 80.5,90C 77.8941,91.9384 76.0608,94.4384 75,97.5C 74.3333,116.833 74.3333,136.167 75,155.5C 75.6972,157.584 76.8639,159.251 78.5,160.5C 68.5,160.5 58.5,160.5 48.5,160.5C 48.5,159.833 48.1667,159.5 47.5,159.5C 46.6018,154.466 44.9351,149.799 42.5,145.5C 38.1066,135.711 32.94,126.378 27,117.5C 24.995,111.701 25.3284,106.367 28,101.5C 45.3644,83.1171 66.1977,77.4504 90.5,84.5 Z"/></g>
<g><path style="opacity:1" fill="#fedc41" d="M 182.5,84.5 C 178.897,86.6404 175.23,88.807 171.5,91C 169.383,92.7309 167.883,94.8976 167,97.5C 166.333,116.833 166.333,136.167 167,155.5C 167.997,157.323 169.164,158.99 170.5,160.5C 160.5,160.5 150.5,160.5 140.5,160.5C 140.672,159.508 140.338,158.842 139.5,158.5C 134.871,142.911 127.871,128.577 118.5,115.5C 118.5,112.5 118.5,109.5 118.5,106.5C 119.569,104.031 120.902,101.698 122.5,99.5C 139.618,83.0169 159.618,78.0169 182.5,84.5 Z"/></g>
<g><path style="opacity:1" fill="#4faaf6" d="M 469.5,79.5 C 467.957,98.5943 465.957,117.594 463.5,136.5C 459.035,177.821 454.701,219.155 450.5,260.5C 442.833,260.5 435.167,260.5 427.5,260.5C 415.829,260.333 404.162,260.5 392.5,261C 388.403,262.922 386.07,266.088 385.5,270.5C 384.517,274.298 384.183,278.298 384.5,282.5C 375.621,273.42 370.455,262.42 369,249.5C 367.975,212.337 367.142,175.171 366.5,138C 366.365,126.432 366.865,114.932 368,103.5C 372.323,93.177 379.823,86.3437 390.5,83C 417.018,82.2058 443.352,81.0391 469.5,79.5 Z"/></g>
<g><path style="opacity:1" fill="#faeebd" d="M 90.5,84.5 C 90.8333,84.5 91.1667,84.5 91.5,84.5C 97.3953,87.1178 103.062,90.2845 108.5,94C 112.866,97.5119 116.199,101.679 118.5,106.5C 118.5,109.5 118.5,112.5 118.5,115.5C 108.796,129.243 101.463,144.243 96.5,160.5C 90.2512,160.614 84.2512,160.614 78.5,160.5C 76.8639,159.251 75.6972,157.584 75,155.5C 74.3333,136.167 74.3333,116.833 75,97.5C 76.0608,94.4384 77.8941,91.9384 80.5,90C 84.0561,88.3924 87.3894,86.5591 90.5,84.5 Z"/></g>
<g><path style="opacity:1" fill="#faeebd" d="M 182.5,84.5 C 192.4,88.0356 200.9,93.7023 208,101.5C 210.374,105.894 211.041,110.56 210,115.5C 200.662,129.509 193.495,144.509 188.5,160.5C 182.289,160.61 176.289,160.61 170.5,160.5C 169.164,158.99 167.997,157.323 167,155.5C 166.333,136.167 166.333,116.833 167,97.5C 167.883,94.8976 169.383,92.7309 171.5,91C 175.23,88.807 178.897,86.6404 182.5,84.5 Z"/></g>
<g><path style="opacity:0.998" fill="#1c2e7a" d="M 118.5,115.5 C 127.871,128.577 134.871,142.911 139.5,158.5C 138.098,160.483 136.264,162.149 134,163.5C 133.333,164.833 132.667,166.167 132,167.5C 131.333,198.833 131.333,230.167 132,261.5C 133.785,265.801 136.952,267.801 141.5,267.5C 141.5,301.5 141.5,335.5 141.5,369.5C 135.878,375.071 132.044,381.738 130,389.5C 129.5,403.496 129.333,417.496 129.5,431.5C 129.5,446.833 129.5,462.167 129.5,477.5C 116.903,470.04 105.237,461.374 94.5,451.5C 95.4991,390.336 95.8324,329.002 95.5,267.5C 99.4925,267.755 102.326,266.089 104,262.5C 104.667,230.167 104.667,197.833 104,165.5C 102.087,162.72 99.5867,161.053 96.5,160.5C 101.463,144.243 108.796,129.243 118.5,115.5 Z"/></g>
<g><path style="opacity:0.983" fill="#1d2e7a" d="M 463.5,136.5 C 501.452,199.006 510.619,265.673 491,336.5C 484.348,359.13 474.515,380.13 461.5,399.5C 461.667,355.832 461.5,312.165 461,268.5C 458.856,264.015 455.356,261.349 450.5,260.5C 454.701,219.155 459.035,177.821 463.5,136.5 Z"/></g>
<g><path style="opacity:0.98" fill="#1c2e7a" d="M 42.5,145.5 C 44.9351,149.799 46.6018,154.466 47.5,159.5C 44.2424,160.921 41.7424,163.254 40,166.5C 39.3333,198.167 39.3333,229.833 40,261.5C 41.4482,266.144 44.6149,268.144 49.5,267.5C 49.5,311.5 49.5,355.5 49.5,399.5C 32.6663,374.493 21.3329,347.159 15.5,317.5C 13.6332,316.203 13.2998,314.703 14.5,313C 12.9561,310.849 12.6228,308.682 13.5,306.5C 13.4712,304.971 12.8045,303.804 11.5,303C 12.0814,302.107 12.4148,301.107 12.5,300C 11.934,294.215 10.934,288.549 9.5,283C 10.1825,269.334 10.8492,255.334 11.5,241C 12.3325,229.513 14.3325,218.013 17.5,206.5C 22.3639,185.359 30.6972,165.026 42.5,145.5 Z"/></g>
<g><path style="opacity:1" fill="#4faaf6" d="M 274.5,156.5 C 271.528,158.641 269.028,161.308 267,164.5C 266.5,188.831 266.333,213.164 266.5,237.5C 257.833,237.5 249.167,237.5 240.5,237.5C 233.167,237.5 225.833,237.5 218.5,237.5C 218.333,213.498 218.5,189.498 219,165.5C 220.442,161.725 222.942,158.892 226.5,157C 242.497,156.5 258.497,156.333 274.5,156.5 Z"/></g>
<g><path style="opacity:1" fill="#73c2f8" d="M 274.5,156.5 C 279.167,156.5 283.833,156.5 288.5,156.5C 304.503,156.333 320.503,156.5 336.5,157C 340.843,158.01 344.01,160.51 346,164.5C 346.5,204.165 346.667,243.832 346.5,283.5C 334.481,290.517 327.148,300.851 324.5,314.5C 323.668,334.663 323.168,354.996 323,375.5C 321,376.167 319.667,377.5 319,379.5C 318.5,389.161 318.334,398.828 318.5,408.5C 318.5,408.833 318.5,409.167 318.5,409.5C 315.167,409.5 311.833,409.5 308.5,409.5C 312.335,389.115 305.335,373.949 287.5,364C 280.66,361.922 273.66,361.089 266.5,361.5C 266.666,355.824 266.499,350.157 266,344.5C 264.727,341.403 262.893,338.736 260.5,336.5C 265.447,337.372 269.613,336.039 273,332.5C 273.667,302.167 273.667,271.833 273,241.5C 271.728,238.778 269.561,237.444 266.5,237.5C 266.333,213.164 266.5,188.831 267,164.5C 269.028,161.308 271.528,158.641 274.5,156.5 Z"/></g>
<g><path style="opacity:1" fill="#bdc7f6" d="M 47.5,159.5 C 48.1667,159.5 48.5,159.833 48.5,160.5C 57.6577,161.33 66.991,161.83 76.5,162C 75,162.833 73.8333,164 73,165.5C 72.3333,197.833 72.3333,230.167 73,262.5C 73.9973,264.323 75.1639,265.99 76.5,267.5C 67.5,267.5 58.5,267.5 49.5,267.5C 44.6149,268.144 41.4482,266.144 40,261.5C 39.3333,229.833 39.3333,198.167 40,166.5C 41.7424,163.254 44.2424,160.921 47.5,159.5 Z"/></g>
<g><path style="opacity:1" fill="#e8eefe" d="M 48.5,160.5 C 58.5,160.5 68.5,160.5 78.5,160.5C 84.2512,160.614 90.2512,160.614 96.5,160.5C 99.5867,161.053 102.087,162.72 104,165.5C 104.667,197.833 104.667,230.167 104,262.5C 102.326,266.089 99.4925,267.755 95.5,267.5C 89.1667,267.5 82.8333,267.5 76.5,267.5C 75.1639,265.99 73.9973,264.323 73,262.5C 72.3333,230.167 72.3333,197.833 73,165.5C 73.8333,164 75,162.833 76.5,162C 66.991,161.83 57.6577,161.33 48.5,160.5 Z"/></g>
<g><path style="opacity:1" fill="#bcc6f5" d="M 139.5,158.5 C 140.338,158.842 140.672,159.508 140.5,160.5C 149.991,161.33 159.658,161.83 169.5,162C 168.333,163.167 167.167,164.333 166,165.5C 165.17,190.337 165.337,215.003 166.5,239.5C 166.217,240.289 165.717,240.956 165,241.5C 164.5,250.16 164.334,258.827 164.5,267.5C 156.833,267.5 149.167,267.5 141.5,267.5C 136.952,267.801 133.785,265.801 132,261.5C 131.333,230.167 131.333,198.833 132,167.5C 132.667,166.167 133.333,164.833 134,163.5C 136.264,162.149 138.098,160.483 139.5,158.5 Z"/></g>
<g><path style="opacity:1" fill="#e8eefe" d="M 140.5,160.5 C 150.5,160.5 160.5,160.5 170.5,160.5C 176.289,160.61 182.289,160.61 188.5,160.5C 190.389,161.322 192.389,162.155 194.5,163C 195.126,163.75 195.626,164.584 196,165.5C 196.5,189.498 196.667,213.498 196.5,237.5C 187.161,237.334 177.827,237.5 168.5,238C 167.956,238.717 167.289,239.217 166.5,239.5C 165.337,215.003 165.17,190.337 166,165.5C 167.167,164.333 168.333,163.167 169.5,162C 159.658,161.83 149.991,161.33 140.5,160.5 Z"/></g>
<g><path style="opacity:1" fill="#ff54b5" d="M 196.5,237.5 C 196.833,237.5 197.167,237.5 197.5,237.5C 197.5,270.167 197.5,302.833 197.5,335.5C 191.642,335.178 185.975,335.511 180.5,336.5C 179.5,336.5 178.5,336.5 177.5,336.5C 174.813,336.664 172.146,336.497 169.5,336C 167.333,335.167 165.833,333.667 165,331.5C 164.5,310.503 164.333,289.503 164.5,268.5C 164.5,268.167 164.5,267.833 164.5,267.5C 164.334,258.827 164.5,250.16 165,241.5C 165.717,240.956 166.217,240.289 166.5,239.5C 167.289,239.217 167.956,238.717 168.5,238C 177.827,237.5 187.161,237.334 196.5,237.5 Z"/></g>
<g><path style="opacity:1" fill="#fe79ca" d="M 197.5,237.5 C 204.5,237.5 211.5,237.5 218.5,237.5C 225.833,237.5 233.167,237.5 240.5,237.5C 240.5,270.167 240.5,302.833 240.5,335.5C 226.323,335.171 212.323,335.504 198.5,336.5C 192.5,336.5 186.5,336.5 180.5,336.5C 185.975,335.511 191.642,335.178 197.5,335.5C 197.5,302.833 197.5,270.167 197.5,237.5 Z"/></g>
<g><path style="opacity:1" fill="#fb90ce" d="M 240.5,237.5 C 249.167,237.5 257.833,237.5 266.5,237.5C 269.561,237.444 271.728,238.778 273,241.5C 273.667,271.833 273.667,302.167 273,332.5C 269.613,336.039 265.447,337.372 260.5,336.5C 246.5,336.5 232.5,336.5 218.5,336.5C 211.833,336.5 205.167,336.5 198.5,336.5C 212.323,335.504 226.323,335.171 240.5,335.5C 240.5,302.833 240.5,270.167 240.5,237.5 Z"/></g>
<g><path style="opacity:1" fill="#feb332" d="M 427.5,260.5 C 425.204,262.401 423.371,264.734 422,267.5C 421.5,314.832 421.333,362.165 421.5,409.5C 409.5,409.5 397.5,409.5 385.5,409.5C 385.5,363.167 385.5,316.833 385.5,270.5C 386.07,266.088 388.403,262.922 392.5,261C 404.162,260.5 415.829,260.333 427.5,260.5 Z"/></g>
<g><path style="opacity:1" fill="#fec739" d="M 427.5,260.5 C 435.167,260.5 442.833,260.5 450.5,260.5C 455.356,261.349 458.856,264.015 461,268.5C 461.5,312.165 461.667,355.832 461.5,399.5C 459.938,403.392 457.605,406.725 454.5,409.5C 443.5,409.5 432.5,409.5 421.5,409.5C 421.333,362.165 421.5,314.832 422,267.5C 423.371,264.734 425.204,262.401 427.5,260.5 Z"/></g>
<g><path style="opacity:1" fill="#4fa9f4" d="M 49.5,267.5 C 58.5,267.5 67.5,267.5 76.5,267.5C 82.8333,267.5 89.1667,267.5 95.5,267.5C 95.8324,329.002 95.4991,390.336 94.5,451.5C 94.5,396.5 94.5,341.5 94.5,286.5C 84.7125,284.58 77.5458,287.914 73,296.5C 72.5,340.832 72.3333,385.165 72.5,429.5C 63.3675,420.541 55.7008,410.541 49.5,399.5C 49.5,355.5 49.5,311.5 49.5,267.5 Z"/></g>
<g><path style="opacity:1" fill="#c5934a" d="M 141.5,267.5 C 149.167,267.5 156.833,267.5 164.5,267.5C 164.5,267.833 164.5,268.167 164.5,268.5C 157.167,268.5 149.833,268.5 142.5,268.5C 142.5,301.833 142.5,335.167 142.5,368.5C 142.5,369.167 142.167,369.5 141.5,369.5C 141.5,335.5 141.5,301.5 141.5,267.5 Z"/></g>
<g><path style="opacity:1" fill="#feb232" d="M 164.5,268.5 C 164.333,289.503 164.5,310.503 165,331.5C 165.833,333.667 167.333,335.167 169.5,336C 172.146,336.497 174.813,336.664 177.5,336.5C 174.558,338.779 172.891,341.779 172.5,345.5C 171.513,350.305 171.179,355.305 171.5,360.5C 167.629,360.185 163.962,360.518 160.5,361.5C 153.861,362.267 147.861,364.601 142.5,368.5C 142.5,335.167 142.5,301.833 142.5,268.5C 149.833,268.5 157.167,268.5 164.5,268.5 Z"/></g>
<g><path style="opacity:1" fill="#fe7186" d="M 368.5,286.5 C 368.5,289.5 368.5,292.5 368.5,295.5C 364.468,305.875 357.801,314.208 348.5,320.5C 344.287,322.737 339.787,324.07 335,324.5C 330.139,324.659 326.639,322.659 324.5,318.5C 324.5,317.167 324.5,315.833 324.5,314.5C 327.148,300.851 334.481,290.517 346.5,283.5C 352.206,280.783 358.206,279.949 364.5,281C 366.464,282.451 367.797,284.284 368.5,286.5 Z"/></g>
<g><path style="opacity:1" fill="#73c2f8" d="M 94.5,451.5 C 86.1667,445.167 78.8333,437.833 72.5,429.5C 72.3333,385.165 72.5,340.832 73,296.5C 77.5458,287.914 84.7125,284.58 94.5,286.5C 94.5,341.5 94.5,396.5 94.5,451.5 Z"/></g>
<g><path style="opacity:1" fill="#ce6489" d="M 368.5,286.5 C 369.498,316.329 369.831,346.329 369.5,376.5C 361.833,376.5 354.167,376.5 346.5,376.5C 338.981,376.825 331.648,376.492 324.5,375.5C 331.833,375.5 339.167,375.5 346.5,375.5C 353.833,375.5 361.167,375.5 368.5,375.5C 368.5,348.833 368.5,322.167 368.5,295.5C 368.5,292.5 368.5,289.5 368.5,286.5 Z"/></g>
<g><path style="opacity:1" fill="#fe4055" d="M 368.5,295.5 C 368.5,322.167 368.5,348.833 368.5,375.5C 361.167,375.5 353.833,375.5 346.5,375.5C 344.82,373.473 343.653,371.139 343,368.5C 342.333,357.833 342.333,347.167 343,336.5C 343.946,330.829 345.779,325.495 348.5,320.5C 357.801,314.208 364.468,305.875 368.5,295.5 Z"/></g>
<g><path style="opacity:1" fill="#e80154" d="M 324.5,318.5 C 326.639,322.659 330.139,324.659 335,324.5C 339.787,324.07 344.287,322.737 348.5,320.5C 345.779,325.495 343.946,330.829 343,336.5C 342.333,347.167 342.333,357.833 343,368.5C 343.653,371.139 344.82,373.473 346.5,375.5C 339.167,375.5 331.833,375.5 324.5,375.5C 324.5,356.5 324.5,337.5 324.5,318.5 Z"/></g>
<g><path style="opacity:1" fill="#bec8f6" d="M 177.5,336.5 C 178.5,336.5 179.5,336.5 180.5,336.5C 186.5,336.5 192.5,336.5 198.5,336.5C 205.167,336.5 211.833,336.5 218.5,336.5C 215.313,340.042 213.313,344.209 212.5,349C 213.498,353.488 215.165,357.655 217.5,361.5C 215.167,361.5 212.833,361.5 210.5,361.5C 198.011,360.505 185.344,360.171 172.5,360.5C 172.5,355.5 172.5,350.5 172.5,345.5C 172.891,341.779 174.558,338.779 177.5,336.5 Z"/></g>
<g><path style="opacity:1" fill="#d2dcfb" d="M 218.5,336.5 C 232.5,336.5 246.5,336.5 260.5,336.5C 262.893,338.736 264.727,341.403 266,344.5C 266.499,350.157 266.666,355.824 266.5,361.5C 250.167,361.5 233.833,361.5 217.5,361.5C 215.165,357.655 213.498,353.488 212.5,349C 213.313,344.209 215.313,340.042 218.5,336.5 Z"/></g>
<g><path style="opacity:1" fill="#dec8b0" d="M 172.5,345.5 C 172.5,350.5 172.5,355.5 172.5,360.5C 168.702,361.483 164.702,361.817 160.5,361.5C 163.962,360.518 167.629,360.185 171.5,360.5C 171.179,355.305 171.513,350.305 172.5,345.5 Z"/></g>
<g><path style="opacity:1" fill="#d2dbfa" d="M 172.5,360.5 C 185.344,360.171 198.011,360.505 210.5,361.5C 196.171,363.663 187.504,371.83 184.5,386C 184.557,394.623 184.557,403.457 184.5,412.5C 169.845,410.132 156.178,412.965 143.5,421C 138.673,424.332 134.007,427.832 129.5,431.5C 129.333,417.496 129.5,403.496 130,389.5C 132.044,381.738 135.878,375.071 141.5,369.5C 142.167,369.5 142.5,369.167 142.5,368.5C 147.861,364.601 153.861,362.267 160.5,361.5C 164.702,361.817 168.702,361.483 172.5,360.5 Z"/></g>
<g><path style="opacity:1" fill="#e8eefe" d="M 210.5,361.5 C 212.833,361.5 215.167,361.5 217.5,361.5C 233.833,361.5 250.167,361.5 266.5,361.5C 273.66,361.089 280.66,361.922 287.5,364C 305.335,373.949 312.335,389.115 308.5,409.5C 308.5,416.833 308.5,424.167 308.5,431.5C 308.167,431.5 307.833,431.5 307.5,431.5C 297.739,420.115 285.405,413.115 270.5,410.5C 249.658,407.743 232.658,414.743 219.5,431.5C 209.747,421.787 198.08,415.454 184.5,412.5C 184.557,403.457 184.557,394.623 184.5,386C 187.504,371.83 196.171,363.663 210.5,361.5 Z"/></g>
<g><path style="opacity:1" fill="#cfd6f6" d="M 324.5,314.5 C 324.5,315.833 324.5,317.167 324.5,318.5C 324.5,337.5 324.5,356.5 324.5,375.5C 331.648,376.492 338.981,376.825 346.5,376.5C 345.496,377.683 344.662,379.016 344,380.5C 343.333,388.833 343.333,397.167 344,405.5C 344.374,406.416 344.874,407.25 345.5,408C 336.506,408.5 327.506,408.666 318.5,408.5C 318.334,398.828 318.5,389.161 319,379.5C 319.667,377.5 321,376.167 323,375.5C 323.168,354.996 323.668,334.663 324.5,314.5 Z"/></g>
<g><path style="opacity:1" fill="#e8eefe" d="M 346.5,376.5 C 354.167,376.5 361.833,376.5 369.5,376.5C 371.39,376.297 372.89,376.963 374,378.5C 374.5,388.828 374.666,399.161 374.5,409.5C 366.5,409.5 358.5,409.5 350.5,409.5C 339.833,409.5 329.167,409.5 318.5,409.5C 318.5,409.167 318.5,408.833 318.5,408.5C 327.506,408.666 336.506,408.5 345.5,408C 344.874,407.25 344.374,406.416 344,405.5C 343.333,397.167 343.333,388.833 344,380.5C 344.662,379.016 345.496,377.683 346.5,376.5 Z"/></g>
<g><path style="opacity:1" fill="#fe55b6" d="M 270.5,410.5 C 258.561,417.904 255.061,428.237 260,441.5C 262.669,445 265.502,448.333 268.5,451.5C 248.707,453.02 232.374,446.354 219.5,431.5C 232.658,414.743 249.658,407.743 270.5,410.5 Z"/></g>
<g><path style="opacity:1" fill="#fedd41" d="M 308.5,409.5 C 311.833,409.5 315.167,409.5 318.5,409.5C 329.167,409.5 339.833,409.5 350.5,409.5C 349.075,410.922 348.075,412.589 347.5,414.5C 346.507,422.65 346.174,430.983 346.5,439.5C 333.833,439.5 321.167,439.5 308.5,439.5C 308.5,436.833 308.5,434.167 308.5,431.5C 308.5,424.167 308.5,416.833 308.5,409.5 Z"/></g>
<g><path style="opacity:1" fill="#f5e8b4" d="M 385.5,270.5 C 385.5,316.833 385.5,363.167 385.5,409.5C 385.827,419.348 385.494,429.014 384.5,438.5C 372.167,438.5 359.833,438.5 347.5,438.5C 347.5,430.5 347.5,422.5 347.5,414.5C 348.075,412.589 349.075,410.922 350.5,409.5C 358.5,409.5 366.5,409.5 374.5,409.5C 377.833,409.5 381.167,409.5 384.5,409.5C 384.5,367.167 384.5,324.833 384.5,282.5C 384.183,278.298 384.517,274.298 385.5,270.5 Z"/></g>
<g><path style="opacity:1" fill="#fedd41" d="M 385.5,409.5 C 397.5,409.5 409.5,409.5 421.5,409.5C 421.5,419.5 421.5,429.5 421.5,439.5C 409.5,439.5 397.5,439.5 385.5,439.5C 385.167,439.5 384.833,439.5 384.5,439.5C 384.5,439.167 384.5,438.833 384.5,438.5C 385.494,429.014 385.827,419.348 385.5,409.5 Z"/></g>
<g><path style="opacity:0.992" fill="#fbeebc" d="M 421.5,409.5 C 432.5,409.5 443.5,409.5 454.5,409.5C 447.332,421.009 438.665,431.343 428.5,440.5C 426.393,439.532 424.059,439.198 421.5,439.5C 421.5,429.5 421.5,419.5 421.5,409.5 Z"/></g>
<g><path style="opacity:1" fill="#fe7aca" d="M 270.5,410.5 C 285.405,413.115 297.739,420.115 307.5,431.5C 300.337,439.768 291.337,445.602 280.5,449C 276.553,450.154 272.553,450.987 268.5,451.5C 265.502,448.333 262.669,445 260,441.5C 255.061,428.237 258.561,417.904 270.5,410.5 Z"/></g>
<g><path style="opacity:1" fill="#fe7aca" d="M 184.5,412.5 C 185.126,428.075 184.46,443.408 182.5,458.5C 171.618,461.596 168.118,468.596 172,479.5C 174.745,483.767 178.578,486.101 183.5,486.5C 184.111,488.913 184.445,491.413 184.5,494C 184.467,496.61 183.8,498.777 182.5,500.5C 165.157,495.812 147.49,488.145 129.5,477.5C 129.5,462.167 129.5,446.833 129.5,431.5C 134.007,427.832 138.673,424.332 143.5,421C 156.178,412.965 169.845,410.132 184.5,412.5 Z"/></g>
<g><path style="opacity:0.999" fill="#fb90cd" d="M 184.5,412.5 C 198.08,415.454 209.747,421.787 219.5,431.5C 232.374,446.354 248.707,453.02 268.5,451.5C 272.553,450.987 276.553,450.154 280.5,449C 291.337,445.602 300.337,439.768 307.5,431.5C 307.833,431.5 308.167,431.5 308.5,431.5C 308.5,434.167 308.5,436.833 308.5,439.5C 308.5,461.833 308.5,484.167 308.5,506.5C 306.549,506.227 305.049,506.893 304,508.5C 301.581,507.544 299.081,507.544 296.5,508.5C 295.006,508.709 293.839,509.376 293,510.5C 291.938,509.903 290.772,509.57 289.5,509.5C 285.322,509.956 281.322,510.623 277.5,511.5C 262.833,511.5 248.167,511.5 233.5,511.5C 229.838,510.659 226.005,509.992 222,509.5C 220.774,509.645 219.607,509.978 218.5,510.5C 216.477,508.827 214.144,508.16 211.5,508.5C 203.511,507.395 195.678,505.395 188,502.5C 187.228,502.645 186.561,502.978 186,503.5C 185.015,502.186 183.848,501.186 182.5,500.5C 183.8,498.777 184.467,496.61 184.5,494C 184.445,491.413 184.111,488.913 183.5,486.5C 193.272,486.561 198.272,481.727 198.5,472C 197.671,462.347 192.338,457.847 182.5,458.5C 184.46,443.408 185.126,428.075 184.5,412.5 Z"/></g>
<g><path style="opacity:1" fill="#fde594" d="M 347.5,414.5 C 347.5,422.5 347.5,430.5 347.5,438.5C 359.833,438.5 372.167,438.5 384.5,438.5C 384.5,438.833 384.5,439.167 384.5,439.5C 371.833,439.5 359.167,439.5 346.5,439.5C 346.174,430.983 346.507,422.65 347.5,414.5 Z"/></g>
<g><path style="opacity:1" fill="#feb332" d="M 308.5,439.5 C 321.167,439.5 333.833,439.5 346.5,439.5C 346.5,457.833 346.5,476.167 346.5,494.5C 334.146,499.507 321.479,503.507 308.5,506.5C 308.5,484.167 308.5,461.833 308.5,439.5 Z"/></g>
<g><path style="opacity:1" fill="#fec739" d="M 346.5,439.5 C 359.167,439.5 371.833,439.5 384.5,439.5C 384.833,439.5 385.167,439.5 385.5,439.5C 385.172,451.012 385.505,462.346 386.5,473.5C 374.09,482.041 360.757,489.041 346.5,494.5C 346.5,476.167 346.5,457.833 346.5,439.5 Z"/></g>
<g><path style="opacity:1" fill="#feb434" d="M 385.5,439.5 C 397.5,439.5 409.5,439.5 421.5,439.5C 424.059,439.198 426.393,439.532 428.5,440.5C 426.473,443.194 424.139,445.527 421.5,447.5C 410.943,457.733 399.276,466.399 386.5,473.5C 385.505,462.346 385.172,451.012 385.5,439.5 Z"/></g>
<g><path style="opacity:1" fill="#febae4" d="M 209.5,445.5 C 217.986,445.151 221.82,449.151 221,457.5C 218.549,463.089 214.383,464.922 208.5,463C 201.779,456.769 202.112,450.936 209.5,445.5 Z"/></g>
<g><path style="opacity:0.016" fill="#53677b" d="M 421.5,447.5 C 422.833,448.167 422.833,448.167 421.5,447.5 Z"/></g>
<g><path style="opacity:1" fill="#febae4" d="M 182.5,458.5 C 192.338,457.847 197.671,462.347 198.5,472C 198.272,481.727 193.272,486.561 183.5,486.5C 178.578,486.101 174.745,483.767 172,479.5C 168.118,468.596 171.618,461.596 182.5,458.5 Z"/></g>
<g><path style="opacity:0.016" fill="#53677b" d="M 211.5,508.5 C 210.833,509.167 210.833,509.167 211.5,508.5 Z"/></g>
</svg>
