<?xml version="1.0" encoding="UTF-8"?>
<!DOCTYPE svg PUBLIC "-//W3C//DTD SVG 1.1//EN" "http://www.w3.org/Graphics/SVG/1.1/DTD/svg11.dtd">
<svg xmlns="http://www.w3.org/2000/svg" version="1.1" width="512px" height="512px" style="shape-rendering:geometricPrecision; text-rendering:geometricPrecision; image-rendering:optimizeQuality; fill-rule:evenodd; clip-rule:evenodd" xmlns:xlink="http://www.w3.org/1999/xlink">
<g><path style="opacity:0.99" fill="#f2d45b" d="M 43.5,-0.5 C 49.5,-0.5 55.5,-0.5 61.5,-0.5C 85.4723,9.45541 93.139,26.7887 84.5,51.5C 80.8734,56.7944 76.54,61.461 71.5,65.5C 71.1667,65.5 70.8333,65.5 70.5,65.5C 58.451,72.0425 46.451,72.0425 34.5,65.5C 20.9711,57.4915 15.1378,45.4915 17,29.5C 20.0936,14.2497 28.9269,4.24966 43.5,-0.5 Z"/></g>
<g><path style="opacity:0.989" fill="#f2d45b" d="M 449.5,-0.5 C 455.5,-0.5 461.5,-0.5 467.5,-0.5C 490.965,9.10453 498.798,26.1045 491,50.5C 487.985,57.3471 483.152,62.3471 476.5,65.5C 470.484,68.2544 464.151,69.9211 457.5,70.5C 451.603,69.6091 445.936,67.9424 440.5,65.5C 440.167,65.5 439.833,65.5 439.5,65.5C 434.46,61.461 430.127,56.7944 426.5,51.5C 419.486,35.066 422.486,20.2326 435.5,7C 439.815,3.67822 444.482,1.17822 449.5,-0.5 Z"/></g>
<g><path style="opacity:0.961" fill="#bdc2c5" d="M 84.5,51.5 C 92.3509,57.5946 100.018,63.928 107.5,70.5C 101.912,74.0884 98.2454,79.0884 96.5,85.5C 88.1423,78.803 79.8089,72.1363 71.5,65.5C 76.54,61.461 80.8734,56.7944 84.5,51.5 Z"/></g>
<g><path style="opacity:0.97" fill="#bdc2c5" d="M 426.5,51.5 C 430.127,56.7944 434.46,61.461 439.5,65.5C 431.191,72.1363 422.858,78.803 414.5,85.5C 412.755,79.0884 409.088,74.0884 403.5,70.5C 410.982,63.928 418.649,57.5946 426.5,51.5 Z"/></g>
<g><path style="opacity:0.991" fill="#f19c1f" d="M 34.5,65.5 C 46.451,72.0425 58.451,72.0425 70.5,65.5C 70.5,146.5 70.5,227.5 70.5,308.5C 58.5,308.5 46.5,308.5 34.5,308.5C 34.5,227.5 34.5,146.5 34.5,65.5 Z"/></g>
<g><path style="opacity:0.991" fill="#f19c1f" d="M 440.5,65.5 C 445.936,67.9424 451.603,69.6091 457.5,70.5C 464.151,69.9211 470.484,68.2544 476.5,65.5C 476.5,146.5 476.5,227.5 476.5,308.5C 464.5,308.5 452.5,308.5 440.5,308.5C 440.5,227.5 440.5,146.5 440.5,65.5 Z"/></g>
<g><path style="opacity:0.975" fill="#e64c3c" d="M 403.5,70.5 C 409.088,74.0884 412.755,79.0884 414.5,85.5C 415.392,92.6634 413.059,98.4967 407.5,103C 390.524,115.113 371.857,123.779 351.5,129C 280.579,147.004 210.245,145.004 140.5,123C 127.081,118.128 114.748,111.461 103.5,103C 97.7606,98.1683 95.4273,92.335 96.5,85.5C 98.2454,79.0884 101.912,74.0884 107.5,70.5C 112.223,69.0068 116.89,69.1735 121.5,71C 139.753,84.2861 160.086,92.9528 182.5,97C 231.167,107 279.833,107 328.5,97C 350.914,92.9528 371.247,84.2861 389.5,71C 394.11,69.1735 398.777,69.0068 403.5,70.5 Z"/></g>
<g><path style="opacity:0.995" fill="#e64c3b" d="M 201.5,281.5 C 174.962,339.27 148.129,396.936 121,454.5C 119.063,458.534 117.563,462.701 116.5,467C 116.5,471.333 118.5,474.333 122.5,476C 141.833,476.667 161.167,476.667 180.5,476C 185.732,473.367 187.565,469.201 186,463.5C 184.457,461.622 182.624,460.122 180.5,459C 166.837,458.5 153.171,458.333 139.5,458.5C 166.694,399.584 193.694,340.584 220.5,281.5C 243.5,281.5 266.5,281.5 289.5,281.5C 317.222,340.338 344.555,399.338 371.5,458.5C 320.499,458.333 269.499,458.5 218.5,459C 213.932,461.587 212.432,465.421 214,470.5C 215.167,473 217,474.833 219.5,476C 275.833,476.667 332.167,476.667 388.5,476C 393.732,473.367 395.565,469.201 394,463.5C 365.548,402.932 337.382,342.265 309.5,281.5C 313.846,281.334 318.179,281.501 322.5,282C 324.624,283.122 326.457,284.622 328,286.5C 370.667,355.833 413.333,425.167 456,494.5C 459.772,500.697 459.272,506.363 454.5,511.5C 321.833,511.5 189.167,511.5 56.5,511.5C 51.7278,506.363 51.2278,500.697 55,494.5C 97.6667,425.167 140.333,355.833 183,286.5C 184.543,284.622 186.376,283.122 188.5,282C 192.821,281.501 197.154,281.334 201.5,281.5 Z"/></g>
<g><path style="opacity:1" fill="#f19a1f" d="M 201.5,281.5 C 207.833,281.5 214.167,281.5 220.5,281.5C 193.694,340.584 166.694,399.584 139.5,458.5C 153.171,458.333 166.837,458.5 180.5,459C 182.624,460.122 184.457,461.622 186,463.5C 187.565,469.201 185.732,473.367 180.5,476C 161.167,476.667 141.833,476.667 122.5,476C 118.5,474.333 116.5,471.333 116.5,467C 117.563,462.701 119.063,458.534 121,454.5C 148.129,396.936 174.962,339.27 201.5,281.5 Z"/></g>
<g><path style="opacity:1" fill="#f19a1f" d="M 289.5,281.5 C 296.167,281.5 302.833,281.5 309.5,281.5C 337.382,342.265 365.548,402.932 394,463.5C 395.565,469.201 393.732,473.367 388.5,476C 332.167,476.667 275.833,476.667 219.5,476C 217,474.833 215.167,473 214,470.5C 212.432,465.421 213.932,461.587 218.5,459C 269.499,458.5 320.499,458.333 371.5,458.5C 344.555,399.338 317.222,340.338 289.5,281.5 Z"/></g>
<g><path style="opacity:0.99" fill="#95a5a4" d="M 34.5,308.5 C 46.5,308.5 58.5,308.5 70.5,308.5C 82.869,308.601 92.7024,313.601 100,323.5C 102.225,327.281 103.891,331.281 105,335.5C 105.667,342.5 105.667,349.5 105,356.5C 104.535,357.931 103.701,359.097 102.5,360C 69.2124,361.497 36.0457,361.997 3,361.5C 1.71367,359.817 0.547002,358.151 -0.5,356.5C -0.5,349.5 -0.5,342.5 -0.5,335.5C 4.584,318.11 16.2507,309.11 34.5,308.5 Z"/></g>
<g><path style="opacity:0.99" fill="#95a5a4" d="M 440.5,308.5 C 452.5,308.5 464.5,308.5 476.5,308.5C 494.711,309.097 506.378,318.097 511.5,335.5C 511.5,342.833 511.5,350.167 511.5,357.5C 509.99,358.836 508.323,360.003 506.5,361C 473.748,361.985 441.081,361.652 408.5,360C 407.299,359.097 406.465,357.931 406,356.5C 401.85,339.041 407.017,324.541 421.5,313C 427.423,309.769 433.757,308.269 440.5,308.5 Z"/></g>
</svg>
